<svg id="圖層_1" data-name="圖層 1" xmlns="http://www.w3.org/2000/svg" xmlns:xlink="http://www.w3.org/1999/xlink" viewBox="0 0 441.71954 35.57422"><defs><style>.cls-1{fill:none;}.cls-2{clip-path:url(#clip-path);}.cls-3{opacity:0.5;}.cls-4{clip-path:url(#clip-path-2);}.cls-5,.cls-6{fill:#fff;}.cls-5{fill-rule:evenodd;}.cls-7{mask:url(#mask);}.cls-8{filter:url(#luminosity-noclip);}</style><clipPath id="clip-path"><polygon class="cls-1" points="212.23 -327.986 498.768 -447.395 498.768 -693.276 -595.524 -693.276 212.23 -327.986"/></clipPath><clipPath id="clip-path-2"><rect class="cls-1" x="-859.45851" y="-1121.44425" width="1850.04119" height="1211.84907"/></clipPath><filter id="luminosity-noclip" x="-20.09576" y="-15.20658" width="497.68509" height="75.66512" filterUnits="userSpaceOnUse" color-interpolation-filters="sRGB"><feFlood flood-color="#fff" result="bg"/><feBlend in="SourceGraphic" in2="bg"/></filter><mask id="mask" x="-20.09576" y="-15.20658" width="497.68509" height="75.66512" maskUnits="userSpaceOnUse"><g class="cls-8"><path d="M171.92528,26.304c-.0533.3008.0543.3691.2392.1517s.5619-.9069.4311-.9649S171.97858,26.00322,171.92528,26.304Z"/><path d="M405.08718,3.46112a.94392.94392,0,0,0-.1452,1.2196l.9163,1.106a1.03478,1.03478,0,0,0,1.2657.0911l1.7702-1.3699a5.26185,5.26185,0,0,0,.6451-.6249,1.8952,1.8952,0,0,0-.6274-.6319l-1.2132-.8472a1.351,1.351,0,0,0-1.3729.0715Z"/><path d="M27.93948,31.14932a.64453.64453,0,0,0-.6091.6857c.0445.3338.494,1.2481.9219,1.2485l1.5054.0458a.59359.59359,0,0,0,.6639-.6618c-.0627-.3676-.341-1.39-.5077-1.4148S28.319,31.10592,27.93948,31.14932Z"/><path d="M429.52778,26.81322a1.40553,1.40553,0,0,0-.7828-.0193,1.09556,1.09556,0,0,0,.4436.71l1.5099,1.2185c.3286.2392.6298.1919.6693-.1051a3.58713,3.58713,0,0,0-.026-1.2622A13.05052,13.05052,0,0,0,429.52778,26.81322Z"/><path d="M358.469,22.12112a1.3289,1.3289,0,0,0,.2334-.5271,1.07864,1.07864,0,0,0-.647-.7577l-.7462-.2962c-.3906-.1424-.7476-.1965-.7933-.1202a3.51087,3.51087,0,0,0-.206.4451,1.39651,1.39651,0,0,0,.4744.7982C357.09538,21.92782,358.35658,22.27132,358.469,22.12112Z"/><path d="M89.73738,7.58372a2.521,2.521,0,0,0,.9422.1617.97086.97086,0,0,0,.494-.831l-.3181-2.0819a.56891.56891,0,0,0-.8255-.3704l-3.3105,1.5151c-.3532.1622-.348.4156.0117.5631Z"/><path d="M151.13738,24.01292c-.3938.164-.4251.3771-.0694.4735s1.3996.0542,1.4554-.1805-.2486-.7765-.6439-.6162Z"/><path d="M156.799,27.10052a.28413.28413,0,0,0,.2787-.2198c.0252-.1257-.1734-.4502-.41-.4093s-.8359.1829-.8048.2531.1697.2761.2375.2932S156.671,27.09572,156.799,27.10052Z"/><path d="M65.88978,31.09562a.509.509,0,0,0,.0674.6919l.569.4436a.56721.56721,0,0,0,.7158-.1103l.6782-.8409a.509.509,0,0,0-.1012-.6877l-.4996-.3619a.63208.63208,0,0,0-.7449.0999Z"/><path d="M199.60308,5.07082c-.0228.0532.2435.2735.5919.4896l.7065.4609c.3595.1971.7422.2334.8505.0805a.5967.5967,0,0,0-.3673-.7815l-.9714-.2569A1.27336,1.27336,0,0,0,199.60308,5.07082Z"/><path d="M211.06088,35.05382a.99457.99457,0,0,0,.857.8659l3.332.3983c.4311.0591.8426-.0916.9142-.335s-.0966-1.063-.4967-1.2344l-4.0779-1.7779a.44341.44341,0,0,0-.6545.4996Z"/><path d="M175.33328,28.49662c.3274.1026.598.1867.6013.1869s-.0088-.3197-.0342-.711a5.80461,5.80461,0,0,0-.2168-1.4125.81186.81186,0,0,0-.7066.3567C174.77288,27.21322,175.00588,28.394,175.33328,28.49662Z"/><path d="M279.70668,14.16332c.2795.0264.3204-.0441.091-.1568s-.8933-.3104-.9342-.2377S279.42728,14.13692,279.70668,14.16332Z"/><path d="M84.00878,8.59322a1.33984,1.33984,0,0,0,1.2662.4279s2.0925-.5316,3.6469-1.0792c.6037-.2125,1.0816-.3913,1.0816-.3913.4102-.1534.5659-.5126.346-.7983a3.02725,3.02725,0,0,0-1.7797-.8474l-4.3702,1.138a.70825.70825,0,0,0-.5316.8859A3.0334,3.0334,0,0,0,84.00878,8.59322Z"/><path d="M303.87708,26.82412a2.89522,2.89522,0,0,0,.9504-1.3471,7.06044,7.06044,0,0,0,.0696-1.12c-.0279-.4309-.3366-.5133-.6858-.183l-5.9587,5.679c-.3415.3383-.5618.657-.4896.7082a1.87738,1.87738,0,0,0,1.0429-.3117Z"/><path d="M273.91528,22.527c-.0281.3096.2774.5723.6788.5838l2.2545.1288c.4014.0144.7391-.0908.7505-.2339a1.13866,1.13866,0,0,0-.6839-.7531l-2.0257-.5892C274.49828,21.57252,273.94328,22.21752,273.91528,22.527Z"/><path d="M168.70428.97752a.94885.94885,0,0,0,.9421.5385c.3014-.0866,1.1359-.6808,1.1562-1.1201l.019-2.794a2.88947,2.88947,0,0,0-.2758-1.1441,1.614,1.614,0,0,0-1.2288-.5145l-2.4015.5322a.555.555,0,0,0-.3497.8804Z"/><path d="M51.59668,17.45922a.58007.58007,0,0,0,.4305.8572l3.0446.7074a.54835.54835,0,0,0,.6986-.6149l-.0584-1.0188a1.668,1.668,0,0,0-.695-1.1936l-1.2744-.7487a.88616.88616,0,0,0-1.1235.2826Z"/><path d="M322.31938,6.251a.94281.94281,0,0,0,.2946.4931,8.15927,8.15927,0,0,0,1.3651.9267l2.0144.9956c.4104.2063.827.238.9259.0704a1.41068,1.41068,0,0,0-.2968-1.2293l-2.7503-2.4634c-.354-.2927-.7951-.3538-.9802-.1357A5.43393,5.43393,0,0,0,322.31938,6.251Z"/><path d="M42.51248,2.44342c0,.4123.1317.7661.2928.7864a1.478,1.478,0,0,0,.9856-.5707l1.0098-1.7772a.58943.58943,0,0,0-.3945-.8627l-.9828-.2593c-.4063-.0704-.7718-.0627-.8124.0171a3.91456,3.91456,0,0,0-.1259,1.0471Z"/><path d="M105.70108,12.80072c.0122.0975.3574.1027.767.0116l.7202-.1636c.41-.0898.4156-.1642.0126-.1653A4.17564,4.17564,0,0,0,105.70108,12.80072Z"/><path d="M6.36618,27.58342c.2478.2894.5543.4458.681.3475s.0628-.6543-.3161-.8503S6.11838,27.294,6.36618,27.58342Z"/><path d="M249.35858,5.462c-.3938-.0998-.6226-.0668-.5084.0732a4.07757,4.07757,0,0,0,1.109.757,5.75328,5.75328,0,0,0,1.3779.3958,2.60259,2.60259,0,0,0,.1328-.3365.59128.59128,0,0,0-.2119-.2413A18.69276,18.69276,0,0,0,249.35858,5.462Z"/><path d="M102.55568,8.36392a2.60938,2.60938,0,0,0-.054.8482,2.89915,2.89915,0,0,0,.5934-.7294l1.9472-3.2412a.81237.81237,0,0,0-.3065-1.1171c-.3894-.1975-1.6131-.2232-1.6714.245Z"/><path d="M426.67448,10.78542c-.1796.4283-.0834.5864.2139.3513s1.005-1.066.877-1.2183S426.85408,10.357,426.67448,10.78542Z"/><path d="M190.03718,37.78682c-.2588.3753-.374.7381-.256.8062a4.57087,4.57087,0,0,0,.6881.2728,1.69132,1.69132,0,0,0,.9914-.5403l1.4327-1.7109c.2792-.3604.3786-.7822.221-.9373a3.58578,3.58578,0,0,0-.824-.4941,1.86771,1.86771,0,0,0-.7853.6345Z"/><path d="M339.54878,19.638c-.0511-.4629-.3321-.8098-.6246-.7708s-1.1178.5089-1.1329.8267a5.86441,5.86441,0,0,0,.4029,1.9334l.4464.7575c.2237.4085.513.687.6428.6191a1.56516,1.56516,0,0,0,.4177-1.0999Z"/><path d="M366.13848,28.57112c-.0102.1062.3025.3084.695.4492l1.901.7485c.3914.1437.8153.1211.9419-.0504a2.62663,2.62663,0,0,0,.3546-.7315l-.0287-.0297a17.95389,17.95389,0,0,0-2.0683-1.7987.80542.80542,0,0,0-1.0304-.0038A6.68376,6.68376,0,0,0,366.13848,28.57112Z"/><path d="M428.89588,33.97692c-.2766-.3246-.6226-.5348-.7688-.4671a1.06185,1.06185,0,0,0-.3072,1.0043l.4772,1.4649a.82032.82032,0,0,0,.955.5102c.3632-.114,1.1164-.7892.8293-1.1047Z"/><path d="M434.21678,29.894c.1476.0183.4969-.2732.7763-.6477a8.8532,8.8532,0,0,0,1.0924-2.2109c.0439-.4177-.0333-1.4485-.264-1.4801a1.87748,1.87748,0,0,0-1.3166.6416l-1.3981,2.303c-.2344.4191-.2832.8535-.1085.9652A7.03351,7.03351,0,0,0,434.21678,29.894Z"/><path d="M181.601,16.21712a.76868.76868,0,0,0-.8262-.5933,3.37454,3.37454,0,0,0-1.3967.6851,1.45654,1.45654,0,0,0,.4365.9964l1.6366,1.1954c.3043.2429.5189.1249.477-.2621Z"/><path d="M135.90318,13.34952a8.67854,8.67854,0,0,1,.2249,1.0118l.7624,4.4924a2.53522,2.53522,0,0,0,.1815.7569.70577.70577,0,0,0,.279-.2548,2.51278,2.51278,0,0,0,.1243-1.2539l-1.2477-5.0451c-.0933-.413-.2214-.6676-.2848-.5659A2.13738,2.13738,0,0,0,135.90318,13.34952Z"/><path d="M122.46308,9.257a.93733.93733,0,0,0-.1368-1.1767c-.3086-.2329-1.2944-.3089-1.3177.1661l-.1258,2.5893c-.0325.4745.1651.5447.4391.156Z"/><path d="M159.44108,3.389c-.2692-.2039-.5705-.1628-.6695.0914a5.12042,5.12042,0,0,0-.2831,1.5083c.0511.2902.4791.6888.7622.4044l.5981-.6375C160.093,4.43722,159.71018,3.59282,159.44108,3.389Z"/><path d="M432.00348,8.05062a.60061.60061,0,0,0,.1155.9525l.914.7137c.3534.2491.7415.2273.8625-.0483s.2988-1.2086.0755-1.468A2.527,2.527,0,0,0,432.00348,8.05062Z"/><path d="M377.02018,21.735a1.00171,1.00171,0,0,0,.2952-.5908l1.054-4.5916c.061-.2878-.0037-.5015-.1438-.4748l-.1345.0373a8.2571,8.2571,0,0,0-.891.3004,1.16657,1.16657,0,0,0-.6173.723l-.8875,3.838a2.81149,2.81149,0,0,0-.0796.6894.47062.47062,0,0,0,.3809.3037A8.57255,8.57255,0,0,0,377.02018,21.735Z"/><path d="M26.73758,30.80762a1.03655,1.03655,0,0,0-1.2644.2374l-.613.8872a.61437.61437,0,0,0,.4146.9371l1.8539.5183c.4511.1033.8719-.059.935-.3605a2.30783,2.30783,0,0,0-.4402-1.6328Z"/><path d="M318.10168,21.37262a.8652.8652,0,0,0-.7558-.8679l-1.0833-.1343a.67708.67708,0,0,0-.7681.6975l-.0606,3.3882a.73758.73758,0,0,0,.7691.7558l.9991-.011a.79931.79931,0,0,0,.7895-.788Z"/><path d="M422.69918,26.69022c-.0911.4591-.0717.8674.0431.9073a1.444,1.444,0,0,0,.9534-.5393l1.5834-2.1789a.61552.61552,0,0,0-.3074-.9728c-.4239-.1422-1.7534-.0662-1.8347.3948Z"/><path d="M48.17208,14.15012c.0464-.4733-.1594-.8641-.4574-.8685s-1.1022.3621-1.0972.8377l-.0436,2.9705c-.0105.4754.1679.8443.3964.8196a1.31581,1.31581,0,0,0,.901-.9354Z"/><path d="M128.42618,5.49462a.9006.9006,0,0,0,.673.7685c.2985.0223,1.1635-.1631,1.219-.3453a2.98548,2.98548,0,0,0-.1172-1.3462l-.8058-1.9192c-.1505-.378-.4417-.6327-.6472-.5659s-.7169.5805-.6576.983Z"/><path d="M61.47868,10.74262c.0505-.3854-.1734-.5251-.4974-.3105l-1.3448,1.053a.77442.77442,0,0,0-.067,1.0331l.9446,1.0135a3.45714,3.45714,0,0,0,.5616.446,3.67348,3.67348,0,0,0,.1462-.7475Z"/><path d="M103.66918,10.45652c-.0714-.3962-.294-.4348-.4948-.0859l-.5185.9817c-.1611.3689-.0509.7183.245.7765s1.0952-.1454,1.025-.5418Z"/><path d="M100.25588,30.88662c.013.383.1687.4289.3458.102s.4554-1.2891.2815-1.3193S100.24278,30.50362,100.25588,30.88662Z"/><path d="M394.14678,8.58012c-.1755-.3656-.3479-.6465-.3831-.6242a2.388,2.388,0,0,0-.1881.8167l-.1674,3.915a.56581.56581,0,0,0,.7263.5672l1.3559-.3831a.67255.67255,0,0,0,.3574-.9351Z"/></g></mask></defs><title>b01</title><g class="cls-2"><g class="cls-3"><g class="cls-4"><path class="cls-5" d="M406.97156,36.28472c0-.43172,1.13206-.5166,1.41107-.86713-1.79994-.01847-1.93506-.55351-4.18266-.43175-.06782.74909,1.06449,1.107,2.77159,1.29888"/><path class="cls-5" d="M147.87938,35.41644c3.36289-1.45017-4.68139,1.05167,0,0"/><path class="cls-5" d="M283.00373,32.822c-1.63928.07013-3.9547-.07379-4.19968.43544,1.64779-.06641,3.98.07379,4.19968-.43544"/><path class="cls-5" d="M256.53174,31.52828c-.38036-.12176-2.10423.21035-1.39431.42806.39712.11807,2.11248-.203,1.39431-.42806"/><rect class="cls-6" x="154.83545" y="27.20135" width="2.79687" height="0.85978"/><path class="cls-5" d="M43.41046,25.90321c.07581-.55349,1.77441-.59777,1.39405-1.29888H41.99913c-1.56321.62361-1.49565,1.05536,1.41133,1.29888"/><path class="cls-5" d="M260.7077,14.65267c.38861.1181,2.12924-.214,1.394-.43541-.37185-.11438-2.11248.21033-1.394.43541"/><path class="cls-5" d="M1.62325,12.92317c3.35439-1.45386-4.68139,1.048,0,0"/><rect class="cls-6" x="117.22472" y="8.59625" width="2.78011" height="0.86347"/><path class="cls-5" d="M248.1646,8.163c-.38036-.11808-2.10423.214-1.37754.43175.38035.11807,2.11247-.20665,1.37754-.43175"/><path class="cls-5" d="M250.97,7.73056c-.21971-.51292.228-1.22876-1.39431-1.29888-.09309.26567-.2112.51291-1.41107.43543.16891.52767.43916,1.02214,2.80538.86345"/><path class="cls-5" d="M211.95514,7.30179c3.3629-1.45755-4.67288,1.04429,0,0"/><path class="cls-5" d="M315.038,6.86562h2.77984c0-.43172,1.14083-.5166,1.39431-.86344-2.18855.03688-4.808-.05906-4.17415.86344"/><path class="cls-5" d="M425.09318,4.27116c-2.4-.02582-3.56609.33211-4.1659.85978,2.18-.03319,4.808.06272,4.1659-.85978"/><path class="cls-5" d="M295.53832,4.7c-.38887-.11807-2.121.21036-1.38579.43175.3801.12545,2.11247-.203,1.38579-.43175"/><rect class="cls-6" x="178.52037" y="2.53724" width="2.78011" height="0.86347"/><path class="cls-5" d="M234.252,2.1018V-.48858c-5.1208-.14023-4.225,1.57933-5.577,2.59038Z"/><path class="cls-5" d="M361.00917.37562c.3801.12179,2.12073-.214,1.394-.43172-.3801-.11808-2.11248.20664-1.394.43172"/></g></g></g><g class="cls-7"><polygon class="cls-6" points="102.415 6.327 102.351 7.777 101.1 8.676 100.593 9.99 99.419 10.705 98.274 11.463 96.889 11.604 95.635 12.305 94.244 12.143 92.811 12.376 91.377 11.916 89.943 12.092 88.508 11.728 87.075 12.291 85.642 12.11 84.21 11.962 82.777 12.602 81.345 12.107 79.912 12.087 78.479 12.029 77.045 12.419 75.61 12.308 74.175 12.678 72.741 11.908 71.308 11.863 69.875 12.107 68.442 12.281 67.008 12.611 65.573 12.644 64.138 12.078 62.703 11.879 61.27 11.92 59.836 12.172 58.401 12.229 56.973 11.812 55.544 11.712 54.114 12.181 52.682 12.192 51.248 11.826 49.811 12.157 48.377 12.092 46.945 12.657 45.513 12.443 44.081 12.195 42.648 12.393 41.213 11.737 39.776 12.172 38.341 12.194 36.907 11.817 35.473 12.395 34.036 12.602 32.599 12.186 31.164 12.602 29.727 12.602 28.289 11.897 26.853 12.613 25.415 12.612 23.978 12.383 22.539 11.735 21.105 11.96 19.67 12.599 18.231 12.4 16.794 12.217 15.355 12.205 13.915 12.386 12.476 12.233 11.034 11.776 9.59 12.47 8.146 12.267 6.801 11.934 5.327 12.258 4.295 11.043 2.833 10.921 1.575 10.224 1.333 8.645 0.084 7.761 0 6.327 0.735 5.101 1.099 3.849 2.155 3.046 3.052 2.077 4.167 1.308 5.366 0.543 6.759 0.382 8.146 0.374 9.579 0.315 11.012 0.581 12.447 0.71 13.881 0.016 15.315 0.489 16.748 0.221 18.18 0.22 19.613 0.376 21.045 0.75 22.478 0.132 23.911 0.052 25.345 0.641 26.78 0.783 28.215 0.903 29.648 0.607 31.082 0.268 32.515 0.157 33.948 0.855 35.382 0.108 36.817 0.583 38.252 0.479 39.686 0.39 41.12 0.467 42.554 0.88 43.988 0.129 45.417 0 46.846 0.476 48.276 0.202 49.708 0.426 51.142 0.892 52.578 0.9 54.012 0.554 55.445 0.556 56.877 0.712 58.309 0.593 59.742 0.753 61.177 0.132 62.614 0.324 64.049 0.194 65.483 0.631 66.917 0.695 68.354 0.118 69.791 0.53 71.226 0.82 72.662 0.029 74.1 0.827 75.537 0.305 76.975 0.827 78.412 0.62 79.85 0.291 81.285 0.16 82.72 0.625 84.159 0.103 85.596 0.178 87.035 0.719 88.475 0.478 89.914 0.048 91.355 0.092 92.8 0.698 94.244 0.212 95.553 0.996 97.055 0.426 98.163 1.451 99.351 2.058 100.489 2.777 101.078 3.994 101.875 5.032 102.415 6.327"/><polygon class="cls-6" points="441.349 29.211 441.333 30.535 440.945 31.879 439.76 32.657 439.087 34.06 437.501 34.014 436.282 34.574 435.006 35.193 433.613 35.336 432.176 34.883 430.739 34.672 429.303 35.264 427.866 34.886 426.43 34.669 424.994 35.38 423.558 35.138 422.122 35.492 420.687 35.364 419.252 35.289 417.816 34.847 416.381 34.6 414.946 35.269 413.512 35.096 412.077 35.029 410.642 35.012 409.208 35.5 407.773 35.281 406.339 35.271 404.905 35.178 403.471 35.164 402.036 35.489 400.602 34.671 399.168 34.619 397.734 35.365 396.3 35.24 394.866 35.394 393.431 34.996 391.997 34.957 390.563 34.757 389.128 35.355 387.694 34.883 386.259 35.451 384.825 35.178 383.39 34.69 381.955 34.746 380.52 34.973 379.085 34.944 377.65 35.185 376.214 35.189 374.778 34.69 373.342 34.652 371.906 35.297 370.47 34.968 369.033 34.599 367.597 35.126 366.159 34.942 364.722 34.836 363.284 35.098 361.846 35.023 360.408 34.697 358.97 34.714 357.533 35.234 356.095 34.729 354.658 35.572 353.221 35.26 351.785 35.043 350.348 34.833 348.912 35.016 347.476 35.33 346.04 34.877 344.604 34.973 343.168 35.299 341.733 35.384 340.297 35.142 338.862 35.308 337.426 34.947 335.991 35.366 334.556 35.331 333.12 35.435 331.685 35.363 330.25 35.084 328.814 34.779 327.379 34.988 325.943 35.305 324.508 34.615 323.072 35.033 321.636 34.744 320.2 35.382 318.764 34.792 317.327 35.249 315.891 35.48 314.454 35.199 313.017 35.269 311.58 35.516 310.142 35.393 308.704 35.343 307.266 35.221 305.827 35.528 304.389 35.338 302.951 34.834 301.513 35.205 300.076 35.487 298.638 34.684 297.201 35.216 295.765 35.204 294.328 34.669 292.891 35.065 291.455 34.939 290.018 35.397 288.582 35.537 287.146 34.794 285.71 35.187 284.274 34.676 282.837 34.82 281.401 35.244 279.965 34.813 278.528 35.45 277.092 35.468 275.655 34.962 274.218 35.527 272.781 34.763 271.344 34.869 269.907 34.793 268.469 35.007 267.031 35.259 265.592 35.258 264.154 34.814 262.715 35.077 261.276 35.015 259.838 34.712 258.401 35.34 256.963 34.619 255.526 34.796 254.088 34.636 252.651 34.795 251.214 35.362 249.777 34.741 248.34 35.151 246.904 34.728 245.467 35.222 244.03 35.02 242.593 35.291 241.156 34.743 239.718 35.33 238.281 35.495 236.843 35.409 235.405 34.647 233.967 35.418 232.528 34.911 231.089 34.706 229.65 35.574 228.212 34.714 226.773 34.661 225.335 35.28 223.898 35.384 222.46 35.007 221.023 34.631 219.59 34.613 218.157 35.105 216.723 35.023 215.289 35.186 213.854 34.893 212.418 34.707 210.982 34.794 209.546 34.808 208.108 35.077 206.67 34.989 205.23 35.151 203.791 35.423 202.353 35.11 200.916 34.86 199.479 35.012 198.042 34.949 196.606 35.199 195.171 34.787 193.735 34.618 192.301 35.101 190.866 35.546 189.432 34.703 187.998 35.372 186.564 34.971 185.129 35.454 183.695 35.154 182.261 35.434 180.826 35.429 179.392 35.209 177.957 34.957 176.521 34.741 175.085 34.865 173.648 34.641 172.211 35.161 170.773 34.586 169.335 35.313 167.895 34.775 166.454 34.587 165.015 35.441 163.576 35.478 162.138 35.473 160.7 34.731 159.263 35.151 157.826 34.708 156.389 35.48 154.953 35.306 153.516 35.177 152.08 35.428 150.644 34.776 149.207 35.211 147.77 35.035 146.332 35.087 144.893 34.639 143.454 35.203 142.014 34.584 140.573 35.131 139.133 35.327 137.693 35.057 136.254 35.335 134.816 35.041 133.377 34.791 131.939 35.495 130.502 35.407 129.064 34.97 127.625 35.309 126.186 34.657 124.747 35.329 123.307 35.002 121.865 35.469 120.424 35.411 118.984 35.298 117.544 35.574 116.105 35.391 114.666 35.268 113.227 35.09 111.788 35.087 110.348 34.596 108.907 35.191 107.465 35.246 106.024 35.232 104.583 35.439 103.143 35.082 101.703 34.72 100.263 35.075 98.823 35.501 97.381 35.217 95.939 34.622 94.498 35.424 93.058 34.846 91.617 35.421 90.176 35.219 88.741 35.505 87.305 35.565 85.868 35.266 84.43 34.861 82.989 35.487 81.546 35.487 80.105 35.052 78.666 34.969 77.227 34.891 75.788 35.492 74.349 34.89 72.906 34.759 71.463 35.394 70.021 35.305 68.581 34.626 67.14 34.848 65.696 35.082 64.253 35.203 62.811 34.921 61.368 35.4 59.923 34.668 58.48 35.515 57.035 35.248 55.591 34.971 54.146 34.722 52.704 35.352 51.263 35.096 49.817 34.706 48.373 35.417 46.928 35.438 45.48 35.164 44.035 35.049 42.587 34.857 41.136 35.478 39.685 34.815 38.377 34.53 36.869 35.128 35.729 34.173 34.734 33.233 33.18 33.038 32.851 31.543 32.195 30.46 31.747 29.211 32.094 27.927 32.755 26.812 33.717 25.955 34.718 25.16 35.53 23.78 36.932 23.53 38.271 23.061 39.685 23.237 41.122 22.942 42.559 22.845 43.996 23.185 45.432 23.084 46.868 23.183 48.304 23.71 49.74 23.601 51.176 22.946 52.611 23.707 54.047 23.218 55.482 22.985 56.917 23.436 58.352 23.482 59.787 23.256 61.221 23.537 62.656 23.449 64.09 23.59 65.525 23.839 66.959 23.021 68.393 23.149 69.828 23.827 71.262 23.434 72.696 23.799 74.13 23.358 75.564 23.074 76.998 23.36 78.433 22.872 79.867 23.595 81.301 23.286 82.735 23.259 84.17 23.53 85.604 23.472 87.039 23.443 88.474 23.098 89.908 23.683 91.343 23.66 92.778 23.289 94.213 23.661 95.649 23.486 97.084 23.154 98.52 23.239 99.956 23.01 101.392 23.341 102.828 23.056 104.265 23.258 105.702 22.89 107.139 22.881 108.576 23.576 110.014 23.084 111.452 23.524 112.89 23.012 114.328 23.504 115.766 23.624 117.203 23.795 118.64 23.626 120.077 23.835 121.513 22.877 122.95 23.258 124.386 23.064 125.822 23.792 127.258 23.213 128.694 22.974 130.13 22.93 131.565 22.954 133.001 23.371 134.436 23.61 135.872 23.355 137.307 23.71 138.742 23.004 140.178 23.803 141.613 23.283 143.048 23.754 144.484 23.121 145.919 23.222 147.355 22.906 148.791 22.855 150.226 23.271 151.662 23.336 153.098 23.808 154.534 23.594 155.971 23.809 157.407 23.318 158.844 22.939 160.281 23.319 161.719 23.09 163.156 23.086 164.594 22.995 166.032 23 167.471 22.939 168.909 22.924 170.347 23.301 171.785 23.244 173.222 23.229 174.66 23.673 176.097 23.804 177.534 23.153 178.97 22.92 180.407 22.95 181.843 23.25 183.28 23.261 184.716 23.408 186.152 23.357 187.589 23.149 189.025 23.268 190.461 23.507 191.897 23.164 193.334 23.627 194.77 23.789 196.206 22.936 197.643 23.432 199.08 23.747 200.517 23.833 201.954 23.628 203.392 23.025 204.829 23.4 206.268 23.23 207.706 23.724 209.145 23.512 210.583 23.357 212.022 23.736 213.46 23.585 214.898 23.4 216.335 23.579 217.773 23.018 219.21 23.671 220.647 23.68 222.084 23.377 223.521 23.256 224.958 23.626 226.395 23.154 227.832 23.511 229.268 23.559 230.705 23.422 232.143 23.512 233.58 23.831 235.017 22.938 236.455 22.893 237.893 23.616 239.332 23.547 240.77 23.036 242.209 23.512 243.648 22.984 245.087 23.721 246.525 23.338 247.963 23.751 249.401 22.915 250.838 23.084 252.276 23.094 253.708 22.872 255.142 23.248 256.575 23.758 258.01 23.643 259.444 23.484 260.88 23.201 262.316 22.987 263.753 23.398 265.19 23.718 266.629 23.284 268.068 23.468 269.507 23.168 270.945 23.367 272.383 23.728 273.82 23.376 275.256 23.069 276.692 23.813 278.128 23.426 279.563 23.673 280.998 23.726 282.432 23.12 283.866 23.825 285.301 23.8 286.735 22.988 288.169 23.101 289.603 23.767 291.037 23.345 292.472 22.876 293.907 23.729 295.342 23.729 296.777 23.776 298.213 22.983 299.65 23.722 301.087 23.435 302.525 23.837 303.964 23.043 305.403 23.647 306.844 23.309 308.283 23.706 309.722 22.888 311.161 23.397 312.598 23.745 314.036 23.49 315.472 23.514 316.909 23.367 318.345 23.647 319.782 23.176 321.218 23.473 322.655 23.191 324.092 23.226 325.529 23.611 326.966 23.31 328.405 23.371 329.844 23.507 331.284 23.617 332.725 23.258 334.165 23.648 335.605 23.525 337.044 23.829 338.483 22.929 339.921 23.456 341.359 23.676 342.797 23.352 344.235 23.191 345.673 23.304 347.112 23.184 348.551 23.828 349.992 22.973 351.433 23.431 352.874 23.175 354.314 23.013 355.754 23.21 357.193 23.574 358.632 23.291 360.071 23.45 361.511 23.638 362.951 23.194 364.391 23.353 365.833 23.335 367.275 23.675 368.715 23.01 370.155 23.007 371.595 23.174 373.035 23.088 374.476 23.176 375.917 22.848 377.359 23.32 378.8 23.679 380.241 22.945 381.681 22.972 383.122 22.977 384.558 23.702 385.993 23.172 387.43 23.432 388.868 23.785 390.309 23.229 391.752 23.497 393.193 23.576 394.633 23.558 396.071 23.192 397.51 23.537 398.95 23.718 400.392 23.278 401.835 23.305 403.277 22.96 404.717 23.12 406.159 22.947 407.602 23.602 409.046 23.757 410.488 23.758 411.931 23.371 413.375 23.795 414.819 23.568 416.263 23.834 417.707 23.487 419.153 23.178 420.594 23.405 422.035 23.503 423.481 23.325 424.925 23.301 426.371 23.623 427.818 23.787 429.263 23.185 430.712 23.115 432.162 23.46 433.613 23.144 435.006 23.228 436.198 24.16 437.745 23.837 438.66 25.037 439.842 25.679 440.94 26.548 441.72 27.762 441.349 29.211"/><polygon class="cls-6" points="67.571 18.037 68.358 16.61 68.207 14.872 69.61 13.959 70.754 12.955 72.145 12.278 73.687 11.897 72.255 12.378 70.824 12.146 69.391 12.634 67.957 12.226 66.525 12.1 65.091 12.088 63.658 12.063 62.223 12.246 60.792 12.087 59.362 12.581 57.926 12.441 56.494 11.801 55.059 11.69 53.622 12.03 52.188 12.439 50.75 12.378 49.31 11.959 47.87 12.567 49.481 12.026 50.654 13.214 52.048 13.86 52.707 15.247 53.751 16.462 53.6 18.037 53.061 19.428 53.311 21.18 52.365 22.533 50.846 23.193 49.41 23.786 47.87 24.123 49.302 23.704 50.734 23.875 52.166 23.842 53.6 24.259 55.032 24.112 56.466 24.324 57.9 24.132 59.334 23.588 60.765 23.646 62.195 24.199 63.631 23.974 65.064 23.829 66.498 23.779 67.935 24.125 69.369 24.096 70.807 23.589 72.247 24.09 73.687 24.133 72.203 23.579 70.838 22.974 69.373 22.351 68.579 20.985 67.966 19.57 67.571 18.037"/><polygon class="cls-6" points="67.571 18.037 68.358 16.61 68.207 14.872 69.61 13.959 70.754 12.955 72.145 12.278 73.687 11.897 72.255 12.378 70.824 12.146 69.391 12.634 67.957 12.226 66.525 12.1 65.091 12.088 63.658 12.063 62.223 12.246 60.792 12.087 59.362 12.581 57.926 12.441 56.494 11.801 55.059 11.69 53.622 12.03 52.188 12.439 50.75 12.378 49.31 11.959 47.87 12.567 49.481 12.026 50.654 13.214 52.048 13.86 52.707 15.247 53.751 16.462 53.6 18.037 53.061 19.428 53.311 21.18 52.365 22.533 50.846 23.193 49.41 23.786 47.87 24.123 49.302 23.704 50.734 23.875 52.166 23.842 53.6 24.259 55.032 24.112 56.466 24.324 57.9 24.132 59.334 23.588 60.765 23.646 62.195 24.199 63.631 23.974 65.064 23.829 66.498 23.779 67.935 24.125 69.369 24.096 70.807 23.589 72.247 24.09 73.687 24.133 72.203 23.579 70.838 22.974 69.373 22.351 68.579 20.985 67.966 19.57 67.571 18.037"/></g></svg>