<svg id="圖層_1" data-name="圖層 1" xmlns="http://www.w3.org/2000/svg" xmlns:xlink="http://www.w3.org/1999/xlink" viewBox="0 0 82.61678 35.53083"><defs><style>.cls-1{mask:url(#mask);}.cls-2{fill:#fff;}.cls-3{filter:url(#luminosity-noclip);}</style><filter id="luminosity-noclip" x="-51.2312" y="-76.89003" width="213.69224" height="222.90441" filterUnits="userSpaceOnUse" color-interpolation-filters="sRGB"><feFlood flood-color="#fff" result="bg"/><feBlend in="SourceGraphic" in2="bg"/></filter><mask id="mask" x="-51.2312" y="-76.89003" width="213.69224" height="222.90441" maskUnits="userSpaceOnUse"><g class="cls-3"><path d="M60.39958,3.4664c.2255-.2728.5649-.405.7538-.294a.48512.48512,0,0,1,.0885.7475s-.4319.3414-.9257.6744c-.0296.02-.4398-.3934-.4113-.4384A7.6011,7.6011,0,0,1,60.39958,3.4664Z"/><path d="M60.67118,20.5046a1.24121,1.24121,0,0,1-2.2419.3591c-.7221-.8821-1.1369-2.9302-.2398-3.7187a4.72825,4.72825,0,0,1,1.2856-.5513c.3729-.1267,1.7488,1.1413,1.7245,1.7336A6.34279,6.34279,0,0,1,60.67118,20.5046Z"/><path d="M68.63278-2.6231a1.16743,1.16743,0,0,1,2.2127.1004A20.30613,20.30613,0,0,1,72.13728.6497c.099.3606-1.3592,1.6196-1.5459,1.5109a13.445,13.445,0,0,1-3.1283-2.5402C67.314-.5432,68.63278-2.6231,68.63278-2.6231Z"/><path d="M33.92428,11.4795a1.20749,1.20749,0,0,1,.183-1.8003l.0402.0449c.6491.7256.997,1.1834.997,1.1834a1.19891,1.19891,0,0,1-.0743,1.7229l-.0953-.0857A11.91407,11.91407,0,0,1,33.92428,11.4795Z"/><path d="M13.346,4.0507a1.20754,1.20754,0,0,1,1.7957.2237l-.0458.0392c-.7401.6326-1.2056.97-1.2056.97a1.19891,1.19891,0,0,1-1.7208-.1133l.0878-.0933A11.93044,11.93044,0,0,1,13.346,4.0507Z"/><path d="M57.05788,18.5256c.528-.6339,1.0888-.4898,1.2458.3201,0,0,.0075.0393-.1476.2557a12.38852,12.38852,0,0,1-.8259,1.0648c-.5605.6052-1.2823.707-1.6041.2264l.1153-.1896A16.56255,16.56255,0,0,1,57.05788,18.5256Z"/><path d="M7.36568,33.8574c-.3599-.1112-.4045-.3823-.0991-.6027,0,0,.0146-.0106.1388.0184l.2359.0552c.2346.1664.3184.4231.1863.5704l-.1166-.003A1.47107,1.47107,0,0,1,7.36568,33.8574Z"/><path d="M30.02568,34.496c.4484-.2459.9765-.2604,1.1733-.032a1.38219,1.38219,0,0,1-.6632,1.6182l-.7222.1077-.3708.0552C28.94918,35.7297,29.57748,34.742,30.02568,34.496Z"/><path d="M65.49708,24.3592a.78362.78362,0,0,1,1.2664.0197l.1115.3052c.0287.0787-.4405.4934-.5783.4472a1.32742,1.32742,0,0,1-.7361-.6317Z"/><path d="M45.75888,10.6421a.507.507,0,0,1-.1284-.796l.1649-.02.1437-.0175a.66981.66981,0,0,1,.117.7385l-.1574.0504Z"/><path d="M49.73688,3.8388c-.1674.2806-.4637.3596-.6585.1759a1.14481,1.14481,0,0,1-.1035-1.2374l.3267-.1109.2713-.0921C49.96828,2.7581,49.90428,3.5582,49.73688,3.8388Z"/><path d="M43.397,1.4124c-.2199-.0978-.2655-.5176-.1017-.9332l.1009.0075.4055.0305c.4371.1563.7324.4282.6563.6043A1.39093,1.39093,0,0,1,43.397,1.4124Z"/><path d="M56.28728,24.503a.5584.5584,0,0,1-.167-.6803,1.19815,1.19815,0,0,1,1.28-.041l.1669.3823.0979.2243A1.11675,1.11675,0,0,1,56.28728,24.503Z"/><path d="M19.83058,30.9802a.99123.99123,0,0,1,.0876-1.5213l.3714-.0166.2521-.0113a1.28622,1.28622,0,0,1-.0753,1.4885l-.339.0323Z"/><path d="M68.94458,27.0457a.21986.21986,0,0,1-.0857-.347l.0659.0014.0934.002a.26942.26942,0,0,1,.08.3299l-.0599.0053Z"/><path d="M77.03488,5.4047c.032-.0382.1459-.0407.2531-.0055l.0101.0502.0152.0739c-.0509.0951-.1377.1499-.1927.1216C77.06568,5.6168,77.003,5.4428,77.03488,5.4047Z"/><path d="M75.40628,27.6393a.275.275,0,0,1-.1848-.359l.0216.0027.13.0151a.29321.29321,0,0,1,.1957.3273l-.0383.0032Z"/><path d="M55.952,31.5448a.24283.24283,0,0,1,.1251-.2279.32438.32438,0,0,1,.3595.2337l-.0617.1292-.0502.1053A.33593.33593,0,0,1,55.952,31.5448Z"/><path d="M18.10728,22.2875c.0051.088-.1403.2548-.3235.3708l-.1439-.0247-.1206-.0206c-.1038-.1893-.0752-.3894.0637-.4445S18.102,22.1996,18.10728,22.2875Z"/><path d="M30.50308-.0885c.1687.2267.0759.434-.2057.4615-.2811.0266-.4194-.1584-.306-.4117C30.10428-.2924,30.33478-.3147,30.50308-.0885Z"/></g></mask></defs><title>b01</title><g class="cls-1"><polygon class="cls-2" points="2.315 29.226 2.24 27.937 2.505 26.549 3.84 25.925 4.547 24.645 6.006 24.525 7.229 24.04 8.424 22.981 9.85 23.844 11.294 23.169 12.738 23.777 14.182 23.18 15.626 23.665 17.072 23.046 18.517 23.557 19.962 23.225 21.406 22.955 22.851 22.978 24.296 22.939 25.735 23.24 27.174 23.4 28.615 23.768 30.057 23.239 31.501 23.17 32.949 23.03 34.393 23.157 35.836 23.671 37.279 23.427 38.721 23.656 40.165 23.422 41.611 23.851 43.058 23.122 44.503 23.734 45.948 23.449 47.393 23.018 48.84 23.129 50.287 23.136 51.733 23.373 53.18 23.222 54.629 23.826 56.076 23.796 57.524 23.383 58.972 23.171 60.421 22.859 61.866 23.697 63.311 23.779 64.761 22.969 66.209 23.768 67.658 23.165 69.109 22.882 70.558 23.464 72.011 23.825 73.465 22.948 74.92 22.886 76.279 23.51 77.74 23.292 79.051 23.856 80.197 24.689 81.294 25.539 82.502 26.392 82.373 27.989 82.586 29.226 82.617 30.543 82.463 32.035 80.948 32.546 80.062 33.552 78.816 34.049 77.502 34.264 76.287 35.014 74.92 35.455 73.476 35.324 72.033 34.915 70.589 34.868 69.144 35.336 67.699 35.344 66.253 35.212 64.808 35.433 63.364 34.643 61.92 35.156 60.475 34.899 59.036 35.077 57.596 35.292 56.156 35.406 54.713 35.181 53.269 34.746 51.822 35.302 50.377 35.447 48.934 35.376 47.492 35.373 46.049 34.731 44.605 35.389 43.16 35.073 41.712 35.219 40.267 35.236 38.823 34.634 37.377 35.315 35.93 35.296 34.483 34.657 33.037 35.178 31.59 35.439 30.142 35.37 28.695 35.531 27.246 35.46 25.798 34.741 24.349 34.602 22.904 34.944 21.459 35.044 20.009 34.617 18.562 35.34 17.112 34.633 15.661 34.911 14.212 35.346 12.76 35.108 11.305 34.728 9.85 34.645 8.475 35.066 7.086 34.949 5.859 34.27 4.531 33.83 3.8 32.567 3.017 31.558 1.745 30.674 2.315 29.226"/><polygon class="cls-2" points="0.096 6.342 0.26 5.004 0.965 3.858 1.625 2.628 2.644 1.644 4.062 1.37 5.286 0.729 6.645 0.488 8.021 0.346 9.456 0.684 10.891 0.419 12.327 0.51 13.766 0.617 15.206 0.898 16.644 0.611 18.081 0.895 19.518 0.473 20.958 0.727 22.398 0.314 23.837 0.35 25.276 0.899 26.717 0.409 28.157 0.186 29.598 0.773 31.038 0.401 32.48 0.839 33.918 0.627 35.355 0.048 36.798 0.734 38.238 0.927 39.68 0.841 41.123 0.827 42.565 0.047 44.01 0.712 45.457 0 46.904 0.327 48.247 0.757 49.709 0.468 50.916 1.251 51.986 2.113 53.346 2.583 53.994 3.838 54.67 5.004 55.144 6.342 54.638 7.671 53.892 8.78 53.13 9.873 52.109 10.767 51.006 11.647 49.548 11.612 48.26 12.037 46.904 12.381 45.47 11.986 44.034 12.428 42.598 11.854 41.16 12.312 39.72 12.036 38.282 12.469 36.845 11.816 35.407 12.585 33.967 12.355 32.528 12.682 31.089 12.512 29.65 12.639 28.209 11.744 26.769 12.534 25.328 12.659 23.888 12.546 22.446 12.294 21.008 12.323 19.57 12.614 18.128 12.439 16.688 12.505 15.246 12.432 13.802 12.512 12.361 12.508 10.916 12.084 9.468 12.034 8.021 12.165 6.687 11.866 5.186 12.331 4.14 11.13 2.79 10.807 2.002 9.65 0.635 9.044 0 7.763 0.096 6.342"/><polygon class="cls-2" points="18.726 17.515 19.037 19.16 18.174 20.56 16.822 21.436 15.966 22.824 14.523 23.567 12.902 23.043 14.334 22.889 15.766 23.158 17.198 23.441 18.632 23.449 20.065 22.888 21.499 23.417 22.932 23.881 24.366 23.733 25.797 22.908 27.228 23.689 28.663 23.554 30.096 23.692 31.531 23.807 32.967 23.263 34.402 23.177 35.839 23.786 37.28 23.125 38.72 23.681 37.281 22.886 35.84 22.503 34.676 21.558 33.665 20.433 32.96 19.058 32.688 17.515 33.403 16.091 33.885 14.725 34.699 13.494 36.026 12.845 37.271 12.103 38.72 11.952 37.287 11.941 35.856 11.78 34.423 11.576 32.989 11.569 31.557 11.654 30.123 11.263 28.69 11.242 27.255 11.693 25.825 11.659 24.394 11.763 22.959 11.453 21.526 11.523 20.091 11.508 18.654 11.485 17.22 11.593 15.782 11.688 14.342 11.372 12.902 11.371 14.356 12.088 16.014 12.127 16.94 13.478 18.189 14.463 18.764 15.945 18.726 17.515"/></g></svg>