<svg id="圖層_1" data-name="圖層 1" xmlns="http://www.w3.org/2000/svg" xmlns:xlink="http://www.w3.org/1999/xlink" viewBox="0 0 167.07004 164.8935"><defs><style>.cls-1{mask:url(#mask);}.cls-2{fill:#fff;}.cls-3{filter:url(#luminosity-noclip);}</style><filter id="luminosity-noclip" x="-2.83938" y="-2.12064" width="181.35405" height="176.3256" filterUnits="userSpaceOnUse" color-interpolation-filters="sRGB"><feFlood flood-color="#fff" result="bg"/><feBlend in="SourceGraphic" in2="bg"/></filter><mask id="mask" x="-2.83938" y="-2.12064" width="181.35405" height="176.3256" maskUnits="userSpaceOnUse"><g class="cls-3"><path d="M86.46826,128.788c.64965.0694,1.19876.45757,1.22022.86131.02181.40374-.44026,1.10151-1.06084.8973,0,0-.96531-.31738-1.98064-.73843a2.58676,2.58676,0,0,1,.25613-1.07953A13.98211,13.98211,0,0,1,86.46826,128.788Z"/><path d="M144.73059,77.2623c-1.03436-.11958-1.42374-1.35712-.866-2.74988a31.17246,31.17246,0,0,1,1.63626-3.40162c.08705-.15073,2.62268.56,2.68239,1.03783a12.534,12.534,0,0,1,.10124,2.779C148.10036,76.41657,145.76444,77.38188,144.73059,77.2623Z"/><path d="M151.68629,109.78669c.032-.8395.99023-1.2962,2.12929-1.01516a25.374,25.374,0,0,1,3.2142,1.05219l.34628.145a2.13158,2.13158,0,0,1-1.90743,2.07045C154.40069,112.15446,151.65444,110.626,151.68629,109.78669Z"/><path d="M64.17449,33.90054a23.62008,23.62008,0,0,0,3.36043.447c1.85673.17929,6.41091,1.41336,5.99523,2.34423-.41552.93157-2.727,2.429-4.21274,1.259,0,0-2.52819-1.991-5.14292-4.05023Z"/><path d="M66.232,140.83646c-2.18208.31237-3.45786-1.07625-2.83537-3.08579.62283-2.00971,3.35351-4.73381,5.48073-4.15545a8.7288,8.7288,0,0,1,2.15767,1.41786c.5749.44493.02371,3.85433-.91287,4.42006A11.70518,11.70518,0,0,1,66.232,140.83646Z"/><path d="M84.9341,18.4756c-.03046-.91288,1.593-1.48535,3.60721-1.27249,0,0,2.15681.22739,4.097.43229,1.94.20508,3.345,1.24636,3.12161,2.31395l-.36256.06386c-3.43415.60432-6.708,1.01308-6.708,1.01308C86.679,21.27722,84.96456,19.38813,84.9341,18.4756Z"/><path d="M107.84343,113.427a3.20765,3.20765,0,0,1,3.52414-2.89646,2.80263,2.80263,0,0,1,1.63937.98141c.61487.69413.56763.86269.56763.86269a3.68385,3.68385,0,0,1-4.02289,2.60451l-1.19271-.81648C107.80986,113.78708,107.84343,113.427,107.84343,113.427Z"/><path d="M128.33912,4.9458a2.66582,2.66582,0,0,1,3.024-2.57855s1.22317.1471,1.43066.8087a5.8398,5.8398,0,0,1-.7348,4.30895c-.31219.511-3.23773.27412-3.33654-.08012A8.85152,8.85152,0,0,1,128.33912,4.9458Z"/><path d="M99.92934,135.80932c1.60892-.03064,2.28021,1.092,1.49193,2.49479a26.64252,26.64252,0,0,1-2.53736,3.71052c-.3231.36948-2.75681-.31531-2.77307-.59826a17.64928,17.64928,0,0,1,.51588-5.26319C96.69785,135.87144,99.92934,135.80932,99.92934,135.80932Z"/><path d="M137.77525,47.42757c-.24782-1.13561.41828-1.67831,1.4805-1.20656a1.45678,1.45678,0,0,1,.74242.758,7.45978,7.45978,0,0,1,.36446,1.6193c.02976,1.16191-.64637,1.8325-1.50249,1.49019l-.31462-.568A8.94716,8.94716,0,0,1,137.77525,47.42757Z"/><path d="M47.17559,96.188a2.229,2.229,0,0,1,2.95807-1.55129l-.02821.10747c-.45617,1.73819-.80679,2.74-.80679,2.74a2.2128,2.2128,0,0,1-2.72807,1.63972l.03478-.2338A22.02456,22.02456,0,0,1,47.17559,96.188Z"/><path d="M24.27215,13.58656a1.3754,1.3754,0,0,1,.71767,1.35036c-.0507.56209-.66835,1.66135-1.27059,1.31074l-.20524-.469-.38229-.87359C22.93528,13.84631,23.82618,13.40588,24.27215,13.58656Z"/><path d="M120.05816,8.59524a1.81061,1.81061,0,0,1,2.07063-1.389c1.06794.07614,3.40421,1.61722,3.21367,3.28359l-.71438.32413-1.39363.63288A3.51037,3.51037,0,0,1,120.05816,8.59524Z"/><path d="M59.88215,138.97644c1.51356.16752,1.86262,1.17748.77565,2.24386,0,0-.053.05174-.54392.03305a22.86618,22.86618,0,0,1-2.48009-.18725c-1.50248-.24678-2.39424-1.25414-1.98185-2.239l.40928-.01558A30.5825,30.5825,0,0,1,59.88215,138.97644Z"/><path d="M61.49366,148.18c-1.17748-.26962-2.0059-.98625-1.84081-1.59282.1651-.60605,2.02443-1.48189,3.83963-.8703,0,0,.16492.05572,1.73109.93572l.40824.22964C65.54044,148.09621,62.671,148.44959,61.49366,148.18Z"/><path d="M119.58692,10.881c-.00034-.09778.30632-.24228.6822-.3212.376-.07891,1.23061.03288,1.191.39648l-.11249.02855a6.67753,6.67753,0,0,1-.83968.17185C120.0033,11.2084,119.58779,10.97876,119.58692,10.881Z"/><path d="M92.02409,124.83229c-.88623-.15835-1.36664-1.4497-1.06777-2.87l.17756.00675a7.29611,7.29611,0,0,1,3.51116.76232l.47643.30025C95.04653,124.3126,92.91014,124.99029,92.02409,124.83229Z"/><path d="M12.40648,108.13c1.18631.62508,1.982,1.759,1.76709,2.52006-.21408.76111-2.43855,1.87092-4.4988.89021l-1.28045-1.42392-.6571-.73116C8.15048,107.56,11.21982,107.50527,12.40648,108.13Z"/><path d="M59.494,157.90821a1.44641,1.44641,0,0,1,1.259,1.96974l-.35633.48231c-.09206.12443-1.20811-.17565-1.27716-.43489a2.44921,2.44921,0,0,1,.2229-1.77643Z"/><path d="M90.6334,106.1871c.06143.00675.10418.08929.095.18309l-.00987.00052a1.05123,1.05123,0,0,1-.29489-.0225l-.01523-.00363C90.41569,106.24455,90.57179,106.18017,90.6334,106.1871Z"/><path d="M67.9937,157.72962c-.69933-2.11459.42364-3.17491,2.49479-2.35618a1.532,1.532,0,0,1,.745.93088l.509,1.38809c-.0751,1.75965-1.08126,3.05377-2.23642,2.87535l-.37934-.59186A11.09273,11.09273,0,0,1,67.9937,157.72962Z"/><path d="M17.28652,29.93718c.53544.08272.72217.5813.4143,1.10792a2.29537,2.29537,0,0,1-.34127.34628c-.06628.0604-.7277-.284-.74743-.48006a1.129,1.129,0,0,1,.48213-.84106Z"/><path d="M160.918,2.25857c-1.76986.35356-2.69727-.73878-2.06077-2.42782,0,0,.59913-1.58953,1.1844-1.74234l.79953-.209a3.03686,3.03686,0,0,1,1.466,3.18944l-.66714.5768C160.93464,2.25511,160.918,2.25857,160.918,2.25857Z"/><path d="M88.64964,14.05969c-1.16848.05659-1.98843-1.06551-1.82229-2.49306l.40963-.166.72891-.29541a1.92045,1.92045,0,0,1,1.57759,2.07063l-.48508.47972Z"/><path d="M60.51451,113.55484a.93567.93567,0,0,1,1.09476-1.00806l.19867.23345.17323.20335a1.23632,1.23632,0,0,1-1.01775.93208l-.23778-.19105Z"/><path d="M75.03851,112.752c-.60241.028-1.02571-.34768-.94126-.83466a2.11281,2.11281,0,0,1,1.79963-1.41924l.50325.39007.4181.324C76.93782,112.00805,75.64093,112.724,75.03851,112.752Z"/><path d="M72.31892,100.5212c-.07338-.438.52644-.93572,1.33306-1.1067l.0912.163.366.65537c.20421.83206.08636,1.5634-.26218,1.62552C73.49882,101.92054,72.39247,100.959,72.31892,100.5212Z"/><path d="M49.89536,143.876c.08982-.53925.484-.9667.87723-.94957a2.2113,2.2113,0,0,1,1.36646,1.92872l-.41862.6462-.24557.37917A2.06127,2.06127,0,0,1,49.89536,143.876Z"/><path d="M146.39973,44.07493a.7163.7163,0,0,1-.48283.70278l-.13222-.09691-.14069-.1028a.55056.55056,0,0,1,.44631-.59618l.22342.067Z"/><path d="M139.79206,59.02846a1.67486,1.67486,0,0,1,1.391,2.08621l-.44389.31444-.36256.257a2.08257,2.08257,0,0,1-1.33738-1.99189l.39907-.35286Z"/><path d="M36.40035,26.10344c.4773.21425.7464.64291.59809.95182a1.85941,1.85941,0,0,1-2.05038.21788l-.70867-.49391-.08653-.06039C34.51957,25.98992,35.92324,25.88868,36.40035,26.10344Z"/><path d="M2.80457,94.34582a1.82945,1.82945,0,0,1,2.43111-1.41405l.40374.55482.27412.3764a2.374,2.374,0,0,1-2.36829,1.39986l-.39491-.48906Z"/><path d="M93.60306,119.79321a2.101,2.101,0,0,1-1.36282-2.91982l.46016-.07269.94264-.14883a1.785,1.785,0,0,1,1.20777,2.42523l-.67977.39024Z"/><path d="M50.61217,17.45023c.05036-1.48085,1.60355-2.32468,3.45093-1.87507l.08272.40495a3.08959,3.08959,0,0,1-.70053,2.55762,2.40811,2.40811,0,0,1-2.361-.40513Z"/><path d="M150.66767,116.13858c.02042-.10521.1002-.14606.17756-.091l.02769.04845a.16328.16328,0,0,1-.023.12495c-.055.004-.14848,0-.16008-.0289Z"/><path d="M70.12507,99.98386a.30087.30087,0,0,1,.3314-.35979l.04811.07615.06836.10833a.36888.36888,0,0,1-.31617.3404l-.0514-.06437Z"/><path d="M113.88434,133.17573a.259.259,0,0,1,.32639-.13862.79855.79855,0,0,1,.31894.7483l-.144.04517-.18742.059A.74459.74459,0,0,1,113.88434,133.17573Z"/><path d="M51.59357,4.53808c.04708-.48819.76821-.57905,1.60269-.20248l.3359.43213c.18967.24436-.02526,1.2133-.2421,1.283l-.56071.18032C52.02276,6.14959,51.54633,5.02576,51.59357,4.53808Z"/><path d="M50.08988,1.70842a2.3684,2.3684,0,0,1,1.83769-.35632l.08411.28277.14658.493c-.28381.67458-.85542,1.1363-1.26989,1.02571C50.47372,3.043,49.89207,1.99708,50.08988,1.70842Z"/><path d="M104.09328,118.89643c.207-.27274.6905-.105,1.07451.37224l.07441.38038c.03652.18725-.43991.68392-.65156.66523l-.40253-.03513C103.76568,120.00572,103.88578,119.16882,104.09328,118.89643Z"/><path d="M153.39921,146.875a.79589.79589,0,0,1-.479-.89281l.11007-.01436.34438-.04482c.39717.09379.5993.42658.44891.73947l-.22359.112Z"/><path d="M10.714,25.5732c.2158-1.0489.766-1.687,1.22213-1.41873a2.02405,2.02405,0,0,1,.72286,2.17689l-.50377.52315c-.1092.11353-1.20154-.33382-1.285-.66367Z"/><path d="M54.61654,22.43411c.15731-1.25363.75418-2.049,1.32631-1.76743.5723.28139,1.50456,1.61133,1.119,2.48683l-.59082.52661a1.86287,1.86287,0,0,1-1.64387-.47Z"/><path d="M100.422,156.37181c.0912.01039.211.18327.266.384l-.067.0668-.09829.09847c-.19833.01851-.37086-.05919-.3835-.17289C100.12663,156.6352,100.33066,156.36143,100.422,156.37181Z"/><path d="M74.32707,107.81055a.37647.37647,0,0,1,.27032-.48214l.01315.02682.081.15991a.40147.40147,0,0,1-.22584.47054l-.03253-.04136Z"/><path d="M38.7368,11.48754c-.04465-.0128-.08151-.11093-.08272-.21857l.04707-.03772.05209-.04154c.1047.01315.1831.07147.17462.12945C38.9192,11.37765,38.78093,11.5,38.7368,11.48754Z"/><path d="M90.56729,22.14337a.24632.24632,0,0,1-.10556-.33607.71342.71342,0,0,1,.68911-.28745l.00069.08791.00208.238A.54193.54193,0,0,1,90.56729,22.14337Z"/><path d="M92.91966,91.84376a1.71966,1.71966,0,0,1,1.96489-.48127l.19538.43385.118.26063a1.79324,1.79324,0,0,1-1.9822.50117l-.1734-.41793Z"/><path d="M11.5341,11.20667a1.253,1.253,0,0,1,1.36473-.75245l.01142.13654.045.53734c-.13533.60622-.64031.93-1.12193.71958l-.1516-.32483Z"/><path d="M7.06143,128.454c.06178-.15159.33435-.18.60605-.06351l.20749.15125c.02735.02008-.09639.38834-.19711.41413l-.2627.06784C7.103,129.01041,6.99982,128.60529,7.06143,128.454Z"/><path d="M155.59582,57.35586c.53129-.08324.95078.06317.93192.32552-.01887.262-.49079.85335-.98955.74761l-.41551-.18188c-.08029-.03513-.05953-.65485.04863-.70279Z"/><path d="M51.48714,148.39941a.11363.11363,0,0,1,.12149-.01.15208.15208,0,0,1,.00156.20109l-.06646.00935-.05416.00761A.15743.15743,0,0,1,51.48714,148.39941Z"/><path d="M152.91292,22.49676c.04188-.21061.4695-.45982.95077-.554l.12633.16164.19746.25231c-.01523.45913-.23691.84452-.49252.85646C153.439,23.22464,152.87086,22.70754,152.91292,22.49676Z"/><path d="M98.511,52.86693a1.35374,1.35374,0,0,1-.88381,1.24117l-.21961-.1651-.22636-.16977a1.37058,1.37058,0,0,1,.87342-1.227l.2255.15835Z"/><path d="M116.4577,65.98087c-.285.05209-.51779-.29818-.51727-.77876l.15039-.3745a.86412.86412,0,0,1,.694-.23432l.28226.3546C117.29063,65.40649,116.74273,65.92912,116.4577,65.98087Z"/><path d="M141.99317,85.92572a.12253.12253,0,0,1-.153.11214.24524.24524,0,0,1-.13948-.31219l.09345-.0964.03461-.03565C141.9326,85.6182,142.00079,85.84577,141.99317,85.92572Z"/><path d="M76.87846,78.26984a1.38823,1.38823,0,0,1-1.07867-1.63989l.317-.30354c.162-.15524,1.051.09846,1.21919.39214a1.3639,1.3639,0,0,1-.17236,1.32856Z"/><path d="M54.91662,113.51123c.02942-.2826.19071-.50827.35823-.50118.16735.00727.55378.48924.50481,1.05652l-.12322.49615-.01454.05815C55.192,114.57674,54.88685,113.79418,54.91662,113.51123Z"/><path d="M68.092,43.25152a.50967.50967,0,0,1-.24885-.55344l.11473-.05866.09605-.04881a.56128.56128,0,0,1,.25612.57075l-.10158.04222Z"/><path d="M123.66554,116.40665c.00121-.01419.03392-.02942.07234-.03392.03893-.0045.10833-.00519.06887.00917C123.7673,116.39557,123.66433,116.42119,123.66554,116.40665Z"/><path d="M70.17993,69.70143a.53107.53107,0,0,1,.33763-.479l.08532.06161a.29136.29136,0,0,1-.33711.47522Z"/><path d="M113.89974,129.162a1.12949,1.12949,0,0,1,.68046-.37553c.13239.027.38817.24955.2717.43956-.11629.18967-.65017.52852-.92862.33175l-.0116-.1933Z"/><path d="M131.5528,33.87735a.305.305,0,0,1,.19573-.07528l.0507.03479.03115.02146c-.01436.09414-.07476.1663-.13394.16059C131.63725,34.01337,131.53324,33.91092,131.5528,33.87735Z"/><path d="M86.33466-.53423c.45341-.21892.78464.00537.73566.49512-.05018.49079-.42122.66921-.82531.3963C85.8411.08428,85.88159-.31739,86.33466-.53423Z"/><path d="M49.54285,12.03389c-.14607-.019-.24921-.0957-.22948-.17029.0199-.07476.18362-.213.31583-.14641l.09847.08566c.02475.02181-.02648.20127-.06161.20785Z"/><path d="M14.43229,82.842a1.19457,1.19457,0,0,1-.90025-.12027l-.1085-.24695-.091-.20646c.18586-.35252.5228-.51225.74916-.35442C14.308,82.07156,14.56208,82.74441,14.43229,82.842Z"/><path d="M30.22844,150.952a.469.469,0,0,1-.42018.44874c-.21667.00762-.564-.40634-.44892-.93053l.18933-.44043.0353-.08307C29.96851,150.00486,30.243,150.71284,30.22844,150.952Z"/><path d="M61.18926,79.00966c-.06075.16821-.20265.19157-.31549.05243-.11214-.13913-.06282-.27671.11059-.30527C61.15759,78.72792,61.24983,78.84179,61.18926,79.00966Z"/><path d="M161.1411,8.03886a.137.137,0,0,1-.16441-.0919.38793.38793,0,0,1,.21944-.34213l.1182.03184.05815.01558A.43491.43491,0,0,1,161.1411,8.03886Z"/><path d="M153.705,42.72577c.15125-.02838.21649.03531.14485.14174s-.33158.303-.40824.23535C153.36511,43.03537,153.55357,42.75433,153.705,42.72577Z"/><path d="M26.51584,153.94278c-.27-.00727-.34369-.18033-.1644-.38453.18015-.20387.401-.19764.49113.01349C26.93239,153.78322,26.78581,153.94987,26.51584,153.94278Z"/><path d="M84.96923,27.27781a.05558.05558,0,0,1-.03547.06905c-.027.0064-.08238-.00692-.06265-.045C84.89032,27.26379,84.96179,27.24614,84.96923,27.27781Z"/><path d="M22.238,118.00224c.13377.01609.16475.11508.06922.22065s-.20507.09258-.243-.02856C22.02639,118.07285,22.10444,117.98666,22.238,118.00224Z"/><path d="M145.44982,74.82461c.01246.13931-.02492.26409-.08272.2769-.05815.01315-.22273-.00485-.23623-.06854a.38462.38462,0,0,1,.2184-.32621l.03306.03911Z"/><path d="M54.913,57.82641c-.00364.11837-.0829.14813-.17566.06662-.0931-.08185-.09016-.17876.00658-.21545C54.84048,57.64106,54.91662,57.70786,54.913,57.82641Z"/><path d="M48.36952,156.90154c.05295.10245-.00866.18846-.13776.19279-.12892.004-.17236-.07944-.09639-.185C48.21117,156.80359,48.31639,156.80013,48.36952,156.90154Z"/></g></mask></defs><title>b01</title><g class="cls-1"><path class="cls-2" d="M70.89259,164.98143a11.60166,11.60166,0,0,1-1.755-.09517,12.19806,12.19806,0,0,1-1.63809-.64,12.47577,12.47577,0,0,1-1.69637-.43063,15.10857,15.10857,0,0,1-1.45095-.97654,16.24169,16.24169,0,0,1-1.51594-.87489c-.44369-.348-.86188-.76085-1.29763-1.16894-.41206-.38591-.7834-.838-1.18815-1.27747-.383-.41589-.6735-.92786-1.04978-1.39162-.35686-.43984-.7687-.85126-1.11937-1.33405-.33354-.45922-.6132-.96916-.941-1.46714a1.50188,1.50188,0,0,0-1.34284-.48142c-.227,0-.50087-.17667-.71546-.06938-.49666.24816-.9918.45328-1.48314.65629-.51335.2121-1.01151.406-1.518.5686-.52841.1696-1.01326.44524-1.53309.56067a15.6541,15.6541,0,0,1-1.61215.24146,14.39362,14.39362,0,0,1-1.62486.15573A13.48414,13.48414,0,0,1,45.643,156.836a13.63889,13.63889,0,0,1-1.71787-.41792,14.16615,14.16615,0,0,1-1.70365-.48033,15.50515,15.50515,0,0,1-1.58945-.78359,13.46969,13.46969,0,0,1-1.53334-1.00223,11.74952,11.74952,0,0,1-1.34289-1.23868A11.39159,11.39159,0,0,1,36.49,151.58578a12.42143,12.42143,0,0,1-.74174-1.67889,13.20623,13.20623,0,0,1-.92958-1.58749A16.52422,16.52422,0,0,1,34.3,146.5531c-.12653-.57446-.22368-1.18841-.30359-1.81433-.07457-.58419-.06883-1.20454-.10354-1.83493a1.60564,1.60564,0,0,0-.38867-1.18511,1.7133,1.7133,0,0,0-1.03555-.31614,1.673,1.673,0,0,0-.22792-.01414,18.72022,18.72022,0,0,1-2.61161.28852,16.43041,16.43041,0,0,1-1.80484-.18432,16.1274,16.1274,0,0,1-1.81515-.154,14.96938,14.96938,0,0,1-1.76659-.46722,13.80779,13.80779,0,0,1-1.59146-.898,12.88389,12.88389,0,0,1-1.5533-.92413,12.479,12.479,0,0,1-1.47036-1.0725,12.06684,12.06684,0,0,1-1.10213-1.44785,12.034,12.034,0,0,1-1.01785-1.47122,12.54967,12.54967,0,0,1-.73454-1.63321,13.4661,13.4661,0,0,1-.48037-1.72291,14.69107,14.69107,0,0,1-.49016-1.74083,16.67489,16.67489,0,0,1-.09623-1.80651c.0013-.58767.09324-1.1916.1544-1.79992.0588-.58475.2803-1.15747.3948-1.75852.11-.57759.0704-1.2034.23221-1.79357a1.346,1.346,0,0,0-.96966-1.72876c-.59862-.171-1.19237-.34045-1.748-.55029-.58152-.21963-1.13345-.49782-1.66665-.759a16.76651,16.76651,0,0,1-1.53933-.986,14.97677,14.97677,0,0,1-1.4474-1.094A14.461,14.461,0,0,1,7.6421,116.5932a13.18818,13.18818,0,0,1-1.01518-1.52665,12.67043,12.67043,0,0,1-.9359-1.54974,13.2364,13.2364,0,0,1-.90733-1.596,13.58955,13.58955,0,0,1-.35575-1.72433,14.06238,14.06238,0,0,1-.24645-1.73107,14.94826,14.94826,0,0,1,.01159-1.74589,15.81071,15.81071,0,0,1,.196-1.73039A16.68254,16.68254,0,0,1,4.7261,103.282c.14306-.55848.30951-1.1116.51083-1.66464.19715-.54155.43221-1.06906.68441-1.60089.247-.52086.40076-1.09952.69979-1.60684.29273-.49661.57237-1.02007.91423-1.49974a1.27006,1.27006,0,0,0,.21122-1.09153c-.08826-.41309-.16136-.8909-.52582-1.10393a13.51449,13.51449,0,0,1-1.61513-.97686,13.12569,13.12569,0,0,1-1.455-1.221,14.463,14.463,0,0,1-1.02246-1.60215,15.19634,15.19634,0,0,1-1.14332-1.50686,18.90814,18.90814,0,0,1-.82233-1.70809C.92545,87.13683.608,86.575.40429,85.95425c-.1906-.58064-.158-1.23414-.32061-1.86738a17.19026,17.19026,0,0,1,.0386-1.75116c-.00018-.8784-.24387-.88479-.18169-1.761.17059-.64219.51116-1.21774.7059-1.8023.21026-.63119.3265-1.26662.56707-1.83382a18.03538,18.03538,0,0,1,.95579-1.65983,15.49682,15.49682,0,0,1,.955-1.64936,13.01707,13.01707,0,0,1,1.26276-1.42548,12.34644,12.34644,0,0,1,1.44526-1.22621A13.39835,13.39835,0,0,1,7.2896,69.7092a1.3961,1.3961,0,0,0,.79393-.87936,1.45,1.45,0,0,0-.27966-1.18c-.35121-.48677-.55174-1.05223-.85183-1.53326-.31791-.50958-.73914-.93889-1-1.44347a17.521,17.521,0,0,1-.55866-1.664,15.86335,15.86335,0,0,1-.62233-1.6241,14.07633,14.07633,0,0,1-.36554-1.70082,13.58822,13.58822,0,0,1-.24615-1.73106A13.78589,13.78589,0,0,1,4.305,56.21057a14.73634,14.73634,0,0,1,.301-1.71748A16.51258,16.51258,0,0,1,5.0113,52.79a14.24846,14.24846,0,0,1,.69826-1.70355,12.38557,12.38557,0,0,1,1.0193-1.52884,11.8651,11.8651,0,0,1,1.10581-1.46187,12.47246,12.47246,0,0,1,1.28761-1.32795,14.44071,14.44071,0,0,1,1.56878-.97837,17.71978,17.71978,0,0,1,1.70449-.69725c.54065-.241,1.04005-.64823,1.639-.85315.56045-.19176,1.21262-.15265,1.82534-.31386a1.752,1.752,0,0,0,1.03309-.74368,1.66984,1.66984,0,0,0-.0134-1.23678c-.18659-.62274-.46267-1.20544-.59469-1.79868-.1409-.63311-.07937-1.28427-.15785-1.88566a18.40588,18.40588,0,0,1-.31255-1.86822,14.52715,14.52715,0,0,1,.11167-1.89071,12.66577,12.66577,0,0,1,.517-1.81567,12.41635,12.41635,0,0,1,.43429-1.84019,13.01234,13.01234,0,0,1,.94987-1.63561,14.40213,14.40213,0,0,1,1.03441-1.58464A13.168,13.168,0,0,1,20.15214,26.527a12.33528,12.33528,0,0,1,1.21105-1.1719,11.77165,11.77165,0,0,1,1.53836-.69095,11.81269,11.81269,0,0,1,1.48141-.7837,13.24017,13.24017,0,0,1,1.62451-.42476,15.637,15.637,0,0,1,1.66962-.15084c.54195-.05045,1.09283-.076,1.66979-.076.47009,0,.95572-.06753,1.45389-.03369.47311.03214.94009.21391,1.432.2762.06334.00727.144-.0485.20644-.0485a1.69929,1.69929,0,0,0,1.58888-1.4849c.03895-.61865.10254-1.21381.1918-1.79964.09332-.61246.11969-1.22163.26591-1.79607a16.91546,16.91546,0,0,1,.5071-1.74657,14.8664,14.8664,0,0,1,.86855-1.599,14.21706,14.21706,0,0,1,.81259-1.6246,13.03893,13.03893,0,0,1,1.14006-1.41986,12.49031,12.49031,0,0,1,1.32836-1.246,12.43152,12.43152,0,0,1,1.46136-1.1004,12.98956,12.98956,0,0,1,1.72837-.60208A13.05733,13.05733,0,0,1,44.00465,8.279a15.02522,15.02522,0,0,1,1.82205-.11251,15.30088,15.30088,0,0,1,1.79867-.37268c.54233,0,1.08346.20153,1.628.25661.5379.0544,1.07593.1259,1.61476.23371.5285.10575,1.0807.15232,1.60889.30914.51569.15312.97745.48355,1.49172.68506.50014.196.98433.42907,1.48209.67055a1.645,1.645,0,0,0,.70536.04145,1.47309,1.47309,0,0,0,.48123-.13761,1.40689,1.40689,0,0,0,.84742-.73527c.247-.52757.59844-.99016.8841-1.47764.294-.50169.66495-.9332.99708-1.39056.34086-.46939.49321-1.08333.87127-1.504A15.70339,15.70339,0,0,1,61.63584,3.715a15.284,15.284,0,0,1,1.229-1.2069,14.34715,14.34715,0,0,1,1.49045-.86019A14.14573,14.14573,0,0,1,65.87587.82962a13.97554,13.97554,0,0,1,1.669-.44277,13.97078,13.97078,0,0,1,1.67981-.40568A14.41815,14.41815,0,0,1,70.9528-.12906a14.91547,14.91547,0,0,1,1.88853.22382,15.29642,15.29642,0,0,1,1.84885.39506,16.02921,16.02921,0,0,1,1.77752.62952A16.85794,16.85794,0,0,1,78.16482,1.93a17.77734,17.77734,0,0,1,1.63139.93567c.51831.34491,1.00177.73791,1.49568,1.14232.48141.39418,1.01834.73421,1.4728,1.18325a1.62289,1.62289,0,0,0,1.053.55064c.00727,0,.01669.02825.024.02825a1.64882,1.64882,0,0,0,1.04669-.62128c.42593-.44594.84915-.87926,1.29189-1.26759A17.83858,17.83858,0,0,1,87.62541,2.792a15.78942,15.78942,0,0,1,1.563-.89814A15.22367,15.22367,0,0,1,90.74123.95331,14.08671,14.08671,0,0,1,92.49915.50494,13.923,13.923,0,0,1,94.2588.09007a14.73734,14.73734,0,0,1,1.80773.03529A16.2065,16.2065,0,0,1,98.65863.274a16.576,16.576,0,0,1,1.82221.33491,14.22467,14.22467,0,0,1,1.75867.59566,12.74092,12.74092,0,0,1,1.59319.94491,12.349,12.349,0,0,1,1.52708,1.03421,12.99594,12.99594,0,0,1,1.25939,1.34549,14.11589,14.11589,0,0,1,1.18462,1.40924,16.31524,16.31524,0,0,1,1.10248,1.50019c.28388.52877.43989,1.144.68783,1.73046a1.42013,1.42013,0,0,0,.89252.68684c.17791.069.31695.33635.50437.33635a1.69394,1.69394,0,0,0,.61438-.235c.52833-.23529,1.01356-.56,1.53733-.75182.54184-.19842,1.07911-.41139,1.615-.563.55482-.157,1.16008-.07713,1.70724-.18367.5647-.11,1.10757-.30305,1.66276-.359a16.94881,16.94881,0,0,1,1.70016-.06889,15.733,15.733,0,0,1,1.78595.0905,14.34666,14.34666,0,0,1,1.766.28932,13.01791,13.01791,0,0,1,1.6721.63112,12.4159,12.4159,0,0,1,1.62345.73249,12.2,12.2,0,0,1,1.51461.95128,12.3976,12.3976,0,0,1,1.18543,1.338,12.47039,12.47039,0,0,1,1.18485,1.3185,13.49045,13.49045,0,0,1,1.06516,1.4413,15.02781,15.02781,0,0,1,.69332,1.65489,16.33239,16.33239,0,0,1,.53881,1.70728c.146.56361.2454,1.156.33867,1.75718.08925.57523.009,1.1801.048,1.78776a1.748,1.748,0,0,0,.543,1.14016,1.64884,1.64884,0,0,0,1.065.21887c.04551,0,.09938.13958.14506.13525.69241-.06334,1.36175-.23168,2.02179-.23168.63415,0,1.26463-.0373,1.86968.0205a17.18934,17.18934,0,0,1,1.8188.4443,15.37022,15.37022,0,0,1,1.76832.54265,14.56973,14.56973,0,0,1,1.78.54236,13.11867,13.11867,0,0,1,1.64324.88922,12.15019,12.15019,0,0,1,1.39723,1.23647,11.66806,11.66806,0,0,1,1.26811,1.35608,12.09212,12.09212,0,0,1,1.09495,1.52745,12.98109,12.98109,0,0,1,.74175,1.7272,14.13884,14.13884,0,0,1,.671,1.76619,16.43485,16.43485,0,0,1,.20234,1.8773,17.72378,17.72378,0,0,1,.21888,1.874c.00333.61206-.18358,1.236-.23938,1.87267-.05347.61016-.09,1.23662-.1982,1.86664-.10376.60429-.3791,1.18233-.53353,1.80245a1.62664,1.62664,0,0,0,.33644,1.16892,1.41453,1.41453,0,0,0,.93882.63242c.6171.136,1.15967.4657,1.72487.645a17.669,17.669,0,0,1,1.76484.503,14.07148,14.07148,0,0,1,1.612.87754,12.59257,12.59257,0,0,1,1.53,1.01615,11.71433,11.71433,0,0,1,1.28242,1.315,11.85179,11.85179,0,0,1,1.05822,1.49187,12.9835,12.9835,0,0,1,.8048,1.63541,14.656,14.656,0,0,1,.726,1.67688,16.64462,16.64462,0,0,1,.52261,1.63965,14.96656,14.96656,0,0,1,.0657,1.72022,14.175,14.175,0,0,1,.01435,1.70068,14.24857,14.24857,0,0,1-.06043,1.70717,14.84077,14.84077,0,0,1-.3936,1.66375,15.817,15.817,0,0,1-.39531,1.6784c-.20764.521-.4786,1.03684-.7456,1.55356-.25689.49717-.56666.98628-.87844,1.47916-.29886.47247-.70575.88809-1.055,1.35634a1.51536,1.51536,0,0,0-.22531,1.22778,1.49041,1.49041,0,0,0,.71875,1.00979,12.86738,12.86738,0,0,1,1.45822,1.044,13.18173,13.18173,0,0,1,1.42777,1.09155,13.68392,13.68392,0,0,1,1.21047,1.33492,15.27779,15.27779,0,0,1,.97393,1.51543c.31033.52029.5255,1.08251.77839,1.61973.25821.54854.64619,1.03758.85692,1.59061.21692.56927.32585,1.17261.50592,1.73233-.001.59486.031,1.19107.0307,1.78546s-.09182,1.18865-.09139,1.78289.06617,1.19132.06738,1.78571c-.1987.54262-.35946,1.10783-.58074,1.644s-.57307,1.01458-.8258,1.53448c-.25421.52291-.43035,1.08645-.72529,1.58284a16.15375,16.15375,0,0,1-1.03638,1.397,13.18308,13.18308,0,0,1-1.11264,1.3279,6.238,6.238,0,0,1-2.81227,1.98194c-.37121.1985-.44089.69621-.54525,1.105a1.51595,1.51595,0,0,0-.01454,1.20561c.33145.50954.71467.97437.99829,1.49086.29239.53247.55123,1.07179.79229,1.60868.24873.554.35531,1.14892.54887,1.70433.19986.57348.56319,1.08711.70364,1.65855a17.14964,17.14964,0,0,1,.17345,1.78972,16.7412,16.7412,0,0,1,.35188,1.76948,14.65207,14.65207,0,0,1-.22546,1.788,14.10045,14.10045,0,0,1-.103,1.80284,13.11,13.11,0,0,1-.65038,1.6833,12.74679,12.74679,0,0,1-.74045,1.62568,12.999,12.999,0,0,1-.89318,1.55955,13.87051,13.87051,0,0,1-1.34787,1.19427,14.03139,14.03139,0,0,1-1.23259,1.29178,15.52751,15.52751,0,0,1-1.48821.9892,16.99466,16.99466,0,0,1-1.58506.81773c-.528.25016-1.05515.53435-1.62593.74057-.54933.19847-1.15133.26249-1.7383.41859a1.59967,1.59967,0,0,0-.90771.81782,1.50179,1.50179,0,0,0-.11841,1.1792c.1952.60958.35037,1.212.48507,1.803.14194.62275.37515,1.21832.45,1.82a16.35976,16.35976,0,0,1,.14028,1.87434,14.14748,14.14748,0,0,1-.28,1.856,13.35122,13.35122,0,0,1-.24057,1.85362,12.98576,12.98576,0,0,1-.826,1.67847,12.88883,12.88883,0,0,1-.84309,1.63916,14.02017,14.02017,0,0,1-1.016,1.54844,13.69411,13.69411,0,0,1-.99,1.38266,11.77975,11.77975,0,0,1-1.413.94109,11.27647,11.27647,0,0,1-1.45482.82923,11.81027,11.81027,0,0,1-1.55429.60974,13.19609,13.19609,0,0,1-1.61811.40235,15.02485,15.02485,0,0,1-1.64048.35969c-.54232.049-1.1032.17013-1.68165.17013-.5051,0-1.03461-.06329-1.5763-.10036-.50916-.03485-1.03734-.07546-1.57188-.14246a1.48229,1.48229,0,0,0-.17868.01575,1.46249,1.46249,0,0,0-.99747.24465,1.59055,1.59055,0,0,0-.57088,1.11857c-.01853.64449-.1417,1.251-.20683,1.84825-.06972.63944.10474,1.29468-.01933,1.8817a14.64179,14.64179,0,0,1-.6949,1.74353,13.03127,13.03127,0,0,1-.62431,1.75246,11.74,11.74,0,0,1-.92413,1.62837,11.60892,11.60892,0,0,1-1.26165,1.38568,12.58069,12.58069,0,0,1-1.42941,1.20841,15.83516,15.83516,0,0,1-1.7024.78043,15.80777,15.80777,0,0,1-1.4229.92416,13.49433,13.49433,0,0,1-1.60982.52848,13.30768,13.30768,0,0,1-1.69043.10638,13.48173,13.48173,0,0,1-1.665.23347,15.09766,15.09766,0,0,1-1.69678-.18346,16.16048,16.16048,0,0,1-1.70934-.13411c-.54185-.11977-1.0652-.3746-1.62343-.55127-.52791-.16707-1.06915-.34068-1.61387-.55918-.51391-.20614-1.04435-.41617-1.575-.66853a1.431,1.431,0,0,0-.64105-.078c-.17929,0-.41207-.18722-.58339-.1225a1.66133,1.66133,0,0,0-.77292.964c-.25672.59713-.61315,1.12242-.90327,1.66005a18.54908,18.54908,0,0,1-.863,1.6843,14.52948,14.52948,0,0,1-1.31524,1.36193,13.31784,13.31784,0,0,1-1.25734,1.39779,12.44024,12.44024,0,0,1-1.4946,1.15749,12.58185,12.58185,0,0,1-1.70794.81074,13.72565,13.72565,0,0,1-1.81415.5017,15.16854,15.16854,0,0,1-1.81714.528,17.16476,17.16476,0,0,1-2.35356.07743,15.83032,15.83032,0,0,1-1.83535-.0294,14.605,14.605,0,0,1-1.7796-.4456,14.25212,14.25212,0,0,1-1.75621-.502,14.65115,14.65115,0,0,1-1.60983-.86069,15.44566,15.44566,0,0,1-1.67181-.776,18.3502,18.3502,0,0,1-1.28357-1.32667c-.44882-.39475-.89138-.79911-1.31841-1.25394a1.58771,1.58771,0,0,0-1.17558-.37136,1.427,1.427,0,0,0-.95492.38144c-.4827.42211-1.06193.698-1.54126,1.07022-.5075.3941-.89013.93048-1.39341,1.26849-.53358.35835-1.05272.72458-1.58105,1.01964-.56129.31346-1.1371.58688-1.69186.82863a15.5959,15.5959,0,0,1-1.81176.51346,13.64766,13.64766,0,0,1-1.81364.44845A12.20824,12.20824,0,0,1,70.89259,164.98143Zm16.40253-63.18478a1.3486,1.3486,0,0,0-.35987.08567c-.2208.05894-.28657-.18653-.50725-.12717a1.55653,1.55653,0,0,0-.99014,1.578c.00037.63852-.15722,1.27713-.15708,1.91565s.1598,1.277.15974,1.91558-.04069,1.27709-.04091,1.91566-.05457,1.27713-.05492,1.91574-.11542,1.27718-.11585,1.91586.07556,1.27743.07507,1.91619c-.00041.61042-.06063,1.22187-.061,1.83433-.0004.61081.241,1.22273.24064,1.8354-.00033.61117-.239,1.2231-.23922,1.836-.00022.61149-.01945,1.2238-.01953,1.83682-.00008.61065.01019,1.22206.0103,1.83408.00011.61119.13923,1.223.13956,1.83539.00034.61168-.03027,1.22393-.02967,1.83666.00061.61212.06213,1.22462.063,1.83763.00091.61195-.00227,1.22428-.001,1.837.00127.61253-.07012,1.22555-.06845,1.83867s.093,1.226.09509,1.83946-.0182,1.227-.01563,1.84074-.01424,1.2276-.01115,1.84145-.05,1.22819-.04641,1.8421.12631,1.22725.13056,1.84114c.00425.61486-.2154,1.23129-.2105,1.84583s.2606,1.22674.26618,1.84081.03924,1.22742.04555,1.84085.00481,1.22642.01189,1.83908-.04664,1.22548-.03875,1.8372a10.65462,10.65462,0,0,0-.02786,1.79385,9.25308,9.25308,0,0,0,.5586,1.70721,8.94822,8.94822,0,0,0,.81227,1.59866,9.30038,9.30038,0,0,0,1.20813,1.31881,10.02861,10.02861,0,0,0,1.312,1.21137,12.02777,12.02777,0,0,0,1.60952.773,13.47421,13.47421,0,0,0,1.6555.62155,12.78077,12.78077,0,0,0,1.70935.62617,10.50726,10.50726,0,0,0,1.818.13937,9.47311,9.47311,0,0,0,1.96238-.31734,9.32883,9.32883,0,0,0,1.93161-.48447,10.349,10.349,0,0,0,1.70555-1.03931,12.17558,12.17558,0,0,0,1.53228-1.2758,11.89846,11.89846,0,0,0,1.17291-1.28624,9.64,9.64,0,0,0,.74273-1.57016,10.75423,10.75423,0,0,0,.95882-3.26873,9.80224,9.80224,0,0,0,.11094-1.73124,12.62818,12.62818,0,0,0-.47825-1.67036,14.431,14.431,0,0,0-.51714-1.63923c-.21287-.55823-.44908-1.10751-.66133-1.66569-.21235-.55846-.39-1.13005-.60179-1.6885s-.31743-1.1571-.52865-1.71562-.37816-1.13369-.58887-1.6923-.61026-1.046-.82049-1.60472-.247-1.18249-.45678-1.74131-.4142-1.11938-.62353-1.67831-.61031-1.04594-.81924-1.605c-.20887-.55889-.30681-1.15932-.51536-1.71849q-.31272-.83848-.6232-1.67812c-.20811-.55909-.36993-1.13551-.57779-1.695-.20777-.5592-.3819-1.131-.58946-1.69062-.20745-.55931-.42193-1.11617-.62921-1.67594-.20716-.55944-.41852-1.1175-.62555-1.67744-.20662-.55882-.40062-1.12252-.60715-1.68187-.20641-.55907-.53985-1.07152-.7462-1.63116-.20625-.55931-.45985-1.1015-.66607-1.66143-.2061-.5596-.42621-1.11439-.63233-1.67464-.206-.55988-.18531-1.20347-.39135-1.764-.20589-.5602-.50883-1.0851-.71482-1.646-.20585-.56052-.49066-1.09246-.69663-1.65375-.2055-.56-.19952-1.198-.40518-1.75887s-.574-1.06246-.77989-1.62414-.41435-1.12288-.62047-1.68545-.5077-1.09072-.71409-1.65423a18.23737,18.23737,0,0,0-.61992-1.8853c-.12062-.24106-.206-.4955-.32058-.73795A1.5575,1.5575,0,0,0,87.29512,101.79665Zm-7.48126-.56a1.31576,1.31576,0,0,0-1.1631.67549c-.05616.08514-.26693-.06063-.32679.02195a5.284,5.284,0,0,0-.32587.999c-.20188.557-.55253,1.061-.75524,1.6197-.20209.557-.25457,1.16933-.45751,1.72809-.20231.557-.44313,1.10109-.64632,1.65992-.20254.557-.45634,1.09648-.65978,1.65541-.20276.557-.51373,1.07578-.71744,1.63482-.203.55707-.3346,1.14132-.53856,1.70048-.20321.55712-.46309,1.09477-.66731,1.65406-.20345.55718-.18035,1.19842-.38483,1.75785-.20369.55726-.63177,1.03378-.83651,1.59336-.20393.55734-.42627,1.10928-.63128,1.669-.20416.55744-.39922,1.11959-.60449,1.67949-.20441.55754-.279,1.16416-.48449,1.72423-.20465.55766-.439,1.10589-.64484,1.66615-.20488.55778-.35332,1.13784-.55938,1.69828-.20513.5579-.41486,1.11569-.62119,1.67632-.20537.558-.47969,1.09228-.68628,1.6531-.20561.55816-.32788,1.14868-.53472,1.70968-.20517.55647-.43217,1.10655-.63859,1.6659-.20553.557-.4301,1.10856-.63689,1.66845-.20589.55744-.46541,1.09677-.67259,1.6572-.20624.55793-.30179,1.15854-.50934,1.71951-.2066.5584-.62412,1.0405-.832,1.602-.2062.55687-.17819,1.20228-.38571,1.76226-.20685.55815-.38839,1.12754-.59658,1.68886-.20747.5594-.42331,1.11759-.63215,1.68021-.20745.55889-.473,1.09811-.68179,1.66025s-.612,1.054-.82216,1.61944a10.03907,10.03907,0,0,0-.4193,1.72117,9.08459,9.08459,0,0,0-.17343,1.76039,8.64241,8.64241,0,0,0,.31071,1.73679,8.87614,8.87614,0,0,0,.48,1.69508,10.14382,10.14382,0,0,0,.99327,1.45427,11.30742,11.30742,0,0,0,1.13616,1.31893,13.91807,13.91807,0,0,0,1.10308,1.27913,11.0343,11.0343,0,0,0,1.39929.94829,9.62889,9.62889,0,0,0,1.56457.62,9.33881,9.33881,0,0,0,1.58436.57773,9.74171,9.74171,0,0,0,1.68676.09618l.00086.01608a10.47309,10.47309,0,0,0,1.765-.11426,12.85011,12.85011,0,0,0,1.65821-.6125,12.19977,12.19977,0,0,0,1.60551-.64878,10.78163,10.78163,0,0,0,1.52351-.82957,10.08113,10.08113,0,0,0,1.42143-1.027,23.00417,23.00417,0,0,0,1.80694-2.97185,10.86655,10.86655,0,0,0,.55169-1.63809,12.41761,12.41761,0,0,0,.36577-1.69364,14.50727,14.50727,0,0,0,.22532-1.734c.0049-.60061.05661-1.20139.061-1.80293.00442-.6011-.19346-1.204-.18951-1.8059.004-.60156.1927-1.20229.19621-1.80447.00352-.60195.01221-1.20419.01532-1.80661s-.19889-1.20577-.19617-1.80839.1235-1.20478.12586-1.80755.00646-1.20573.00848-1.80861c.002-.603.05313-1.20593.05484-1.80886.00171-.6032.039-1.20624.04045-1.80918.00142-.60332-.0049-1.20651-.00373-1.8094.00116-.60339-.00237-1.20655-.00144-1.80936.00093-.60341.01513-1.2065.01585-1.80918.00072-.6045-.13409-1.20875-.13356-1.81237.00053-.60425-.0495-1.208-.04914-1.81125.00037-.60391-.01425-1.20724-.014-1.81.00023-.60349.24192-1.20627.242-1.80841.00013-.603-.10315-1.2053-.10312-1.8068,0-.60382-.084-1.20684-.08405-1.809s.22527-1.20345.22521-1.80377-.1733-1.19967-.17337-1.798c0-.91542-.00261-.91542-.00255-1.83084.00006-.91645-.10148-.91646-.10142-1.83291.00006-.91515.21581-.91513.21587-1.83028,0-.91729.0388-.91728.03886-1.83457.00005-.91877-.18144-.91878-.18138-1.83755s.16392-.91876.164-1.83752a1.60169,1.60169,0,0,0-.87317-1.30229c-.24921-.14111-.18053-.26241-.42975-.40352C80.38387,101.09975,80.06531,101.23664,79.81386,101.23664Zm14.31443-2.30218a1.31611,1.31611,0,0,0-.71279.23658c-.21785.13033-.34765-.08722-.56581.04259a1.55257,1.55257,0,0,0-.50846,1.85231c.12047.36353-.03.41311.08908.77711.175.538.50118,1.02318.69743,1.554.20773.56256.37787,1.13964.58636,1.70316.20819.5627.366,1.14461.57492,1.70816.20833.562.30949,1.16441.51846,1.72718.20881.56236.48962,1.09846.699,1.66144.20927.56264.36277,1.14646.57254,1.7096.20969.56289.64613,1.04154.85626,1.60481.21007.56311.197,1.20973.40749,1.7731s.4032,1.13338.614,1.69681.43128,1.12334.64231,1.68681.5523,1.07833.76356,1.6418.39363,1.13807.6051,1.7015c.21156.56367.48006,1.10584.6917,1.6692.21177.56369.41956,1.12868.63136,1.69194.21194.56367.35571,1.15275.56762,1.71588.21245.56456.50859,1.09729.72094,1.66119.21253.56436.40382,1.13632.61619,1.69991.21256.5641.40666,1.1347.619,1.69791.21256.56378.37212,1.147.5844,1.7098.21251.5634.53595,1.08436.74812,1.64664.21243.563.2149,1.20452.42693,1.76625.21274.56362.65959,1.03812.87186,1.60036s.45022,1.114.662,1.67473.41554,1.12364.62668,1.68279c.29938.79311.24209.81474.54143,1.60786s.10612.86605.40544,1.65918a16.92352,16.92352,0,0,0,.81648,1.72246,14.09057,14.09057,0,0,0,.9531,1.653,11.46122,11.46122,0,0,0,1.2858,1.40421,10.37439,10.37439,0,0,0,1.39172,1.29741,10.02792,10.02792,0,0,0,1.72186.80342,10.50386,10.50386,0,0,0,1.79317.55767,11.99406,11.99406,0,0,0,1.83619.48393c.347.03081.6954.02246,1.029.02246l.00069-.11486a10.8694,10.8694,0,0,0,1.82089-.0134,9.41887,9.41887,0,0,0,1.74358-.53151,8.95024,8.95024,0,0,0,1.62962-.80718,9.2065,9.2065,0,0,0,1.45155-1.104,10.42548,10.42548,0,0,0,1.02957-1.50094,11.29574,11.29574,0,0,0,.91785-1.543,11.12435,11.12435,0,0,0,.74921-1.71671,9.79513,9.79513,0,0,0,.49951-1.826,9.1932,9.1932,0,0,0-.19654-1.88071,9.50848,9.50848,0,0,0-.38956-1.82441,11.26774,11.26774,0,0,0-.73682-1.7159,13.81031,13.81031,0,0,0-.93333-1.62426,17.1371,17.1371,0,0,0-1.067-1.55843c-.37879-.43964-.72163-.91032-1.09992-1.35068s-.90984-.74967-1.28761-1.19064c-.37793-.44116-.615-1.00284-.99225-1.44432-.37751-.44179-.75051-.88712-1.12725-1.329-.3771-.44232-.90979-.75182-1.286-1.194-.37668-.44276-.66286-.96207-1.03857-1.40452q-.56444-.66468-1.12582-1.3299c-.3768-.44447-.71546-.92045-1.09109-1.36419-.37621-.44442-.7245-.9115-1.09945-1.355-.37561-.44426-.75635-.88306-1.13058-1.32615-.375-.444-.75272-.88433-1.12622-1.32691-.37554-.445-.74007-.89784-1.114-1.34122s-.85063-.79858-1.2229-1.24012-.78228-.84956-1.15278-1.289c-.57266-.67922-.43947-.49806-1.15676-1.3488-.32682-.38764-.529-1.00218-.96283-1.5167-.35415-.42005-.81857-.81058-1.22809-1.29635-.36479-.4327-.813-.83394-1.211-1.30607-.37208-.44137-.58416-1.04259-.97673-1.50828-.37688-.4471-.89371-.79154-1.282-1.25222-.38084-.45183-.76747-.90639-1.15235-1.363-.385-.45681-.848-.84855-1.23014-1.302-.38906-.46164-.60987-1.05846-.98876-1.50808-.393-.46636-.74893-.9489-1.123-1.39287-.39857-.47305-.9229-.81372-1.29047-1.25006-.40752-.48378-.66765-1.047-1.02433-1.47052-.42724-.50733-.901-.89184-1.23418-1.28776A1.41254,1.41254,0,0,0,94.12829,98.93446ZM72.803,98.80363a1.31244,1.31244,0,0,0-1.05979.53409c-.36831.44153-.93143.7206-1.30016,1.16212s-.57108,1.02182-.94012,1.46325-.85912.78134-1.22845,1.2227c-.3692.44121-.61621.98493-.98581,1.42624-.369.44062-.76926.85531-1.13865,1.29606s-.7804.84684-1.15016,1.28776-.82755.80822-1.19766,1.24934-.68182.93151-1.05229,1.37287-.78689.84441-1.15769,1.28605-.55664,1.03889-.92777,1.48084-.925.73078-1.29642,1.17309c-.38149.45428-.77835.89723-1.16134,1.35332-.38171.45457-.75628.91663-1.13935,1.37291-.38189.45487-.658.99987-1.04116,1.45635-.38108.454-.78654.88887-1.16873,1.34441-.38137.45458-.71671.94892-1.09907,1.4049-.38161.45509-.76694.90811-1.14942,1.36452-.3818.45558-.81982.865-1.20237,1.32183-.38191.45607-.69556.97014-1.07812,1.42734-.38133.45576-.78028.89752-1.16214,1.35432-.38157.45646-.77842.90081-1.16039,1.35823-.38172.45711-.807.87848-1.189,1.33646-.38179.45773-.67249.99186-1.05447,1.45038-.38152.458-.93544.77289-1.317,1.23157s-.5706,1.07783-.95216,1.53715-.74167.93653-1.12308,1.39638-.76893.91464-1.15007,1.375-.80921.88173-1.19,1.34241A10.96062,10.96062,0,0,0,38.885,138.466a9.96255,9.96255,0,0,0-.6842,1.57707,6.74184,6.74184,0,0,0-.51869,3.36244,5.58137,5.58137,0,0,0,.68314,3.34683,9.65887,9.65887,0,0,0,.79123,1.53037,10.04387,10.04387,0,0,0,.86531,1.51322,10.23759,10.23759,0,0,0,1.26724,1.20386,10.4323,10.4323,0,0,0,1.49538.88943,10.65174,10.65174,0,0,0,1.56932.88094,10.52116,10.52116,0,0,0,1.75316.41818,10.305,10.305,0,0,0,1.79036.17408,10.72231,10.72231,0,0,0,1.7481-.10487,10.439,10.439,0,0,0,1.63592-.61631,10.14255,10.14255,0,0,0,1.57167-.69976,10.331,10.331,0,0,0,1.47257-.90113,10.76989,10.76989,0,0,0,1.36879-1.0851,11.378,11.378,0,0,0,.92734-1.48163,11.29058,11.29058,0,0,0,.84093-1.50683c.25026-.54128.46472-1.09433.69512-1.64333.23122-.551.48675-1.08843.70272-1.64236.21737-.5575.53382-1.07459.74057-1.63016.2092-.56219.45845-1.10611.66177-1.66124.28589-.782.38181-1.63344.67584-2.4096.212-.561.59665-1.05627.8078-1.61634.21173-.56162.42806-1.1208.63881-1.681.21146-.56215.23058-1.19554.44091-1.75586.21119-.56261.53247-1.08261.74238-1.64294q.31522-.8415.63015-1.67834c.20985-.56129.46508-1.10386.67334-1.662.20955-.56155.45177-1.1089.65957-1.66675.21015-.56419.41225-1.12906.62046-1.689.20984-.56433.41437-1.128.62207-1.6875.20951-.56441.43045-1.12161.63762-1.68062.20918-.56442.29013-1.173.49675-1.73139.20884-.56438.369-1.143.575-1.70073.20849-.56429.4015-1.13013.607-1.687.20814-.56416.64129-1.04083.84614-1.59684.20779-.564.31687-1.15936.52109-1.71438.20768-.56441.33456-1.153.53834-1.70755.20777-.56537.625-1.04775.8285-1.60218.20771-.56586.25057-1.18551.45361-1.73928.20754-.566.41006-1.12644.61248-1.67907.20783-.56742.31755-1.16247.51972-1.715.20749-.567.61454-1.05181.81578-1.60223.2076-.56779.4482-1.11326.64885-1.66245a1.56887,1.56887,0,0,0-.82925-1.82294c-.26932-.14942-.18939-.29289-.4583-.443C73.35653,98.68625,73.05285,98.80363,72.803,98.80363Zm26.67713-4.60592a1.30816,1.30816,0,0,0-.93987.40751,1.53152,1.53152,0,0,0-.53147,1.71932c.21546.44545.5568.68027.66618.92878a4.86138,4.86138,0,0,0,.49435,1.20174c.56935.67739.69136.57487,1.26052,1.25241.56834.67658.53733.70263,1.10567,1.37921.56968.67816.52827.71294,1.09795,1.3911.57059.67926.48277.753,1.05337,1.43228s.62915.63006,1.19973,1.30932c.3907.4652.73625.96964,1.12823,1.43633.3909.46543.96755.77609,1.3597,1.24291.39114.4656.60038,1.08522.99273,1.55212.39139.46574.7688.94439,1.16138,1.41134.39165.46584.79177.92568,1.1846,1.39262.39107.46487.889.84083,1.28123,1.30669.39154.46508.75988.95064,1.15254,1.41661.392.46523.83106.89171,1.22418,1.35775.39252.46534.7823.93378,1.17589,1.39983.393.4654.731.97813,1.125,1.44415.39355.4654.8559.87327,1.25047,1.33921.39408.46535.77138.94554,1.16645,1.41134.39407.46461.77365.9421,1.16869,1.40707.39479.46468.747.9661,1.14276,1.431.39551.46467.88184.85242,1.27827,1.31727.39623.46459.6224,1.07485,1.01953,1.53952.39693.46446.98464.7661,1.38246,1.23055.3974.464.81617.90972,1.21443,1.37359s.79063.93287,1.18974,1.39656.75218.96712,1.15211,1.43055.64408,1.06186,1.04482,1.52495a14.72852,14.72852,0,0,0,2.81254,2.27948,10.64531,10.64531,0,0,0,1.68106.66776,5.975,5.975,0,0,0,3.52808.5568,10.30263,10.30263,0,0,0,1.779-.20262,10.46231,10.46231,0,0,0,1.78757-.28707,10.09374,10.09374,0,0,0,1.6328-.79267,40.1577,40.1577,0,0,0,2.74625-2.35007,11.93935,11.93935,0,0,0,1.64063-3.21925,11.28182,11.28182,0,0,0,.43677-1.85815,10.04028,10.04028,0,0,0-.137-1.89922,9.49216,9.49216,0,0,0-.30655-1.84934,9.79441,9.79441,0,0,0-.59926-1.78315,10.7763,10.7763,0,0,0-.8589-1.69933,12.76165,12.76165,0,0,0-1.36588-1.32753,13.8499,13.8499,0,0,0-1.415-1.24574,16.15172,16.15172,0,0,0-1.57775-1.03653c-.52776-.31439-1.0365-.65994-1.564-.97351-.52813-.314-.99826-.72482-1.52595-1.03792-.52846-.31355-1.03272-.66716-1.56061-.97979-.52878-.31315-1.16011-.4519-1.68818-.76407-.52906-.31275-.96361-.78428-1.49183-1.096-.5293-.31235-1.05546-.62884-1.58379-.9401-.52953-.312-1.16246-.4468-1.69088-.75762-.52974-.31159-.99891-.72451-1.52739-1.03489q-.79487-.46683-1.58668-.93342c-.53163-.31179-1.03763-.6654-1.56771-.97585-.5316-.31133-1.04436-.65285-1.57425-.96278-.53153-.31089-1.066-.6145-1.59569-.92391-.5314-.31043-1.06416-.61618-1.59355-.92507-.53123-.31-1.05469-.63074-1.58375-.93911-.531-.30951-1.12909-.50119-1.65778-.809-.53078-.30907-1.0857-.57362-1.614-.88094-.5305-.30862-1.06716-.60343-1.595-.91023-.53216-.30931-.94158-.82652-1.47086-1.13393-.531-.30844-1.11253-.52654-1.64053-.833-.52991-.30757-1.10042-.54141-1.62711-.84692-.5306-.30777-.94648-.80944-1.47364-1.11507s-1.13942-.46035-1.663-.76377c-.33368-.19319-.91461-.52466-1.59269-.91459-.49789-.2863-1.09939-.5148-1.645-.82815-.55965-.32143-1.00625-.82658-1.49159-1.10514-.91794-.52685-.7757-.49013-1.571-.94607C100.0561,94.0701,99.73656,94.19771,99.48009,94.19771ZM67.16371,94.183a1.31633,1.31633,0,0,0-.69351.22576c-.84586.49225-.97327.27338-1.819.76583-.84711.49325-.738.68061-1.58512,1.17386s-.92651.35688-1.77364.85009c-.51415.29925-.94873.73688-1.46432,1.037-.51437.29941-1.0498.56426-1.56552.86454-.51455.2996-1.057.55291-1.57279.85339-.5147.29982-1.08777.501-1.60365.8017-.51483.30008-.99172.66667-1.50764.96762-.5149.30037-1.0605.54953-1.57642.85077-.51388.3-.90629.80927-1.42109,1.11019-.51408.30051-1.14894.39568-1.66385.697-.51423.301-1.03855.586-1.55354.88782-.51434.30147-1.02391.61226-1.53892.91461-.51441.302-.95879.7242-1.47379,1.02706-.51444.30254-1.0449.57872-1.55984.88214-.51442.3031-.99818.659-1.513.963-.51436.30369-1.031.60413-1.54575.9087-.51426.30431-1.06579.54638-1.58032.85158-.51363.30465-.98166.68666-1.49548.9922-.51359.30541-1.03878.59179-1.5525.89809-.51351.30618-1.03709.59593-1.55065.903-.51338.307-1.05578.5659-1.56912.87376-.51318.30776-.96515.71772-1.47822,1.02639-.51274.30846-1.14116.42535-1.65371.73472s-.89542.83354-1.40771,1.14382-1.00987.64459-1.52182.95578-1.02774.61571-1.53928.92782a10.07427,10.07427,0,0,0-1.4198.96579,10.58868,10.58868,0,0,0-1.3566,1.10669,13.23621,13.23621,0,0,0-2.31268,6.47141,10.413,10.413,0,0,0,.2685,1.70583,10.04789,10.04789,0,0,0,.44981,1.644,10.1844,10.1844,0,0,0,.512,1.64662,10.05953,10.05953,0,0,0,.96588,1.4335,10.466,10.466,0,0,0,1.30894,1.23454,10.31933,10.31933,0,0,0,1.35164,1.19342,9.9359,9.9359,0,0,0,1.63637.76528,10.37264,10.37264,0,0,0,3.52407.72117,10.02219,10.02219,0,0,0,1.66629-.33809,9.90542,9.90542,0,0,0,1.61773-.42506,10.38478,10.38478,0,0,0,1.55725-.62721,11.16046,11.16046,0,0,0,1.49593-.80659,12.373,12.373,0,0,0,1.15083-1.25272c.39141-.39725.77373-.79827,1.14957-1.20884.37731-.41217.72669-.84429,1.09107-1.264.36683-.42256.75472-.82232,1.11126-1.24658.3609-.42944.804-.78555,1.1573-1.21056.45566-.5498.9472-1.06758,1.40736-1.60994.38091-.45054.60722-1.03133.9875-1.48139.38134-.45131.9037-.783,1.28442-1.23383.38107-.45125.766-.8988,1.14645-1.34959.38081-.45119.60473-1.03428.985-1.485.38056-.45113.85123-.82579,1.23123-1.27649q.5705-.6766,1.14163-1.35134c.38009-.451.79758-.87009,1.17716-1.3207.37987-.451.78685-.87871,1.16622-1.32928.37967-.45091.75328-.90654,1.13246-1.35706.37947-.45087.75522-.90449,1.13422-1.355.3798-.45143.76963-.89408,1.149-1.34515.37952-.45127.65517-.98952,1.03427-1.44044.37926-.45111.71966-.93452,1.09851-1.3853.379-.451.7464-.91134,1.125-1.362.37878-.45081.94229-.74611,1.32071-1.19662.379-.45124.67874-.9688,1.05743-1.41974s.69282-.95579,1.07118-1.40645.92917-.7563,1.30723-1.20669.62333-1.012,1.00111-1.46212.75338-.90186,1.1309-1.35176.67712-.96493,1.0544-1.41459.91972-.76055,1.29677-1.21.78366-.87386,1.16051-1.3231a1.56521,1.56521,0,0,0-.2675-2.10886c-.24947-.22979-.13808-.35057-.38733-.5806A1.56112,1.56112,0,0,0,67.16371,94.183Zm35.0538-6.39343a1.316,1.316,0,0,0-1.27314.88959,1.52657,1.52657,0,0,0,.33722,1.8653c.48007.33521.98283.432,1.29814.66128.591.42935.90487.84616,1.32886,1.09017.10447.06016.18416-.07808.28859-.01784.523.30172,1.02657.63894,1.551.9415.52326.30187,1.02019.651,1.54479.95368.52346.302.99025.70381,1.515,1.00666.52364.30222,1.0861.53861,1.61092.84164.52378.30242,1.01822.657,1.5431.96024.52391.30265,1.1693.39637,1.69423.6998.52291.30225.927.81125,1.45086,1.11426.52316.30261,1.03719.62208,1.56122.92544.52338.303,1.05227.59743,1.57644.90114.52356.30336,1.11714.4869,1.64142.791.5237.30375,1.03215.63474,1.5565.9392.52381.30415,1.07847.55613,1.60286.861.52388.30456,1.04592.61318,1.57032.91844.52393.305,1.01144.67328,1.53581.979.52394.30542,1.09318.53392,1.61749.84.52341.30558,1.03563.631,1.55934.9373.52351.30613,1.03727.62955,1.561.93634.52355.30669,1.01864.66244,1.54236.96977.52355.30724,1.10733.51244,1.631.82032s.93331.80914,1.45683,1.11756c.52325.30827,1.17373.40109,1.69693.71s1.06058.59428,1.58366.90378,1.042.62641,1.56494.93651,1.01453.67318,1.53717.98388.9395.79919,1.46181,1.11047a16.48687,16.48687,0,0,0,1.48179.72778,13.95,13.95,0,0,0,1.52068.6392,11.1174,11.1174,0,0,0,1.61725.30648,9.78416,9.78416,0,0,0,1.62885.2306,8.942,8.942,0,0,0,1.55736-.28689,8.79231,8.79231,0,0,0,1.49035-.45918,9.57989,9.57989,0,0,0,1.50062-.49982,11.33176,11.33176,0,0,0,1.30383-.89962,11.614,11.614,0,0,0,1.35048-1.3808,10.50351,10.50351,0,0,0,1.2892-1.44065,9.40313,9.40313,0,0,0,.8126-1.7582,9.25035,9.25035,0,0,0,.49165-1.86866,9.92351,9.92351,0,0,0,.12606-1.93435,11.7864,11.7864,0,0,0-.45981-1.87934,12.643,12.643,0,0,0-.54927-1.80047,10.97913,10.97913,0,0,0-.77247-1.71854,10.21557,10.21557,0,0,0-1.0183-1.60842,10.07491,10.07491,0,0,0-1.51583-1.14932,10.46677,10.46677,0,0,0-1.59253-.996,12.12,12.12,0,0,0-1.7478-.693,14.31913,14.31913,0,0,0-1.81857-.5c-.56745-.10695-1.11408-.32432-1.68163-.42985s-1.12665-.25675-1.69426-.36132-1.17173-.01-1.73937-.11409-1.10193-.39-1.66956-.494c-.7819-.143-.781-.14825-1.56286-.2912s-.81883.05879-1.60072-.08434c-.59415-.10914-1.16965-.335-1.76935-.44483-.59413-.10887-1.19076-.22-1.79087-.3297-.59414-.1086-1.18249-.26608-1.783-.37558-.59417-.10835-1.18521-.25234-1.78613-.36167-.59392-.10805-1.19265-.20912-1.79365-.31822-.59368-.10776-1.19176-.21156-1.79281-.32043-.59349-.1075-1.18833-.22873-1.78946-.33738-.59337-.10724-1.21463-.0818-1.81587-.19025-.59181-.10675-1.19646-.16442-1.79632-.27241-.59232-.10663-1.19126-.1992-1.79182-.30712-.59284-.10652-1.14712-.45142-1.74838-.55926-.59337-.10644-1.20918-.1118-1.81112-.21958-.5939-.10635-1.20685-.13062-1.80943-.23834-.594-.10618-1.15266-.43488-1.75542-.54246-.59371-.106-1.22219-.04215-1.82474-.14954-.59231-.10555-1.18942-.20918-1.79057-.31616-.59374-.10566-1.20962-.11206-1.81228-.21916-.59485-.10571-1.15638-.42456-1.7602-.53173-.59285-.10522-1.18335-.24931-1.78512-.356-.596-.10566-1.22821-.03333-1.83328-.14046-.59614-.10555-1.16811-.37316-1.77326-.48018C102.41053,87.6064,102.30421,87.78957,102.21751,87.78957Zm-38.585-.07943a1.30721,1.30721,0,0,0-.24993.06156c-.85474.15672-.90047-.09308-1.75529.06319-.8536.156-.81461.36932-1.66821.52537-.8556.15641-.884.00114-1.73958.15755-.857.15666-.82828.31368-1.68526.47034s-.86425.11689-1.72124.27349c-.59971.10946-1.21008.1659-1.81161.27573-.6.10955-1.22156.10648-1.82328.21644-.60033.10971-1.18773.29487-1.7896.405-.60059.10994-1.21272.16129-1.81471.27172-.60081.11023-1.1586.45847-1.76067.56924-.59994.11038-1.24367-.01339-1.84473.09758-.60033.11083-1.20473.20324-1.806.31471-.60066.11135-1.2.23313-1.80152.34517-.60094.11192-1.17681.36075-1.77849.4734-.60116.11256-1.20838.195-1.81016.30828-.60134.11326-1.19164.28661-1.79346.40068-.60147.114-1.20387.22423-1.8057.3391-.60154.11482-1.21691.15854-1.81868.27428-.60157.11569-1.18621.31969-1.78788.43634s-1.20733.21153-1.80885.32916-1.20675.21652-1.80814.33521-1.2138.18252-1.815.30232-1.179.3566-1.77993.47757c-.60105.121-1.24639.02284-1.84692.145-.60111.12232-1.15173.49063-1.75218.61418s-1.19464.27482-1.79431.39967-1.20031.24227-1.79908.36845a8.5091,8.5091,0,0,0-1.80219.52537,8.9317,8.9317,0,0,0-1.74349.79432,9.44386,9.44386,0,0,0-1.37292,1.34527,10.09448,10.09448,0,0,0-1.14482,1.53946,10.75,10.75,0,0,0-.69519,1.69534,11.223,11.223,0,0,0-.57957,1.73636,11.4377,11.4377,0,0,0-.05686,1.82859,10.94988,10.94988,0,0,0,.14078,1.80225,10.74418,10.74418,0,0,0,.21505,1.81411,10.63017,10.63017,0,0,0,.69481,1.64054A9.92947,9.92947,0,0,0,9.85524,113.12a9.79961,9.79961,0,0,0,1.09278,1.40039,9.549,9.549,0,0,0,1.45358,1.02677,9.49283,9.49283,0,0,0,1.58777.79453,9.71252,9.71252,0,0,0,1.70678.51,10.40957,10.40957,0,0,0,1.77745-.03892,10.46449,10.46449,0,0,0,1.55632-.11984,11.30606,11.30606,0,0,0,1.54227-.27837,12.33382,12.33382,0,0,0,1.5314-.41269,13.78485,13.78485,0,0,0,1.32282-.879c.52855-.31118,1.05635-.61892,1.58082-.92755.5284-.311,1.04193-.64242,1.56625-.95083.52825-.31071,1.0731-.58844,1.59728-.89661.52809-.31048,1.1115-.52211,1.63555-.83.528-.31024,1.07769-.57864,1.60161-.88636.52782-.31.9513-.793,1.47511-1.10049.52768-.30977,1.147-.45872,1.67072-.766.52757-.30954,1.05586-.61317,1.57947-.92023.52971-.31063.9538-.79676,1.47954-1.10489.52932-.31023,1.11645-.51719,1.64183-.82494q.79341-.46476,1.58193-.92415c.52858-.30944,1.08009-.57515,1.60481-.88216.52824-.30906,1.07258-.586,1.597-.89268.52791-.30868,1.05006-.62272,1.57421-.929.52761-.30832,1.051-.61938,1.57491-.92533.52733-.308,1.05953-.60318,1.5832-.9088.52919-.30885.9883-.7335,1.51385-1.04.52845-.30821,1.02968-.65889,1.55454-.96481.52775-.30759,1.04623-.627,1.57047-.93229.52709-.307,1.174-.40417,1.69762-.709.52651-.30646.99932-.70113,1.52247-1.00541.52771-.30693,1.01149-.68544,1.53588-.99023.52633-.30591,1.16422-.4159,1.68732-.71972.52674-.30592.96491-.76055,1.4885-1.06441s1.04429-.609,1.56485-.91091a9.92114,9.92114,0,0,0,1.25549-1.02912c.15956-.12789.45133-.086.61383-.208a1.69759,1.69759,0,0,0,.55961-1.86793c-.09364-.23747-.26315-.17075-.3563-.40841A1.37347,1.37347,0,0,0,63.63248,87.71014ZM83.54415,68.79878a13.71334,13.71334,0,0,0-1.77814.16431,14.53619,14.53619,0,0,0-1.813.10975,13.98778,13.98778,0,0,0-1.63322.78893A14.11315,14.11315,0,0,0,76.64,70.519,14.05181,14.05181,0,0,0,75.235,71.65029,14.79311,14.79311,0,0,0,72.632,74.10642a14.02275,14.02275,0,0,0-1.10619,1.43216,13.9186,13.9186,0,0,0-.74063,1.65172,13.68577,13.68577,0,0,0-.6448,1.6894,14.10652,14.10652,0,0,0-.1179,1.808,13.61593,13.61593,0,0,0-.35584,1.776,12.50591,12.50591,0,0,0,.11324,1.80662,13.27524,13.27524,0,0,0,.39605,1.76622,14.05874,14.05874,0,0,0,.74573,1.644,14.27052,14.27052,0,0,0,.79533,1.60695,21.1521,21.1521,0,0,0,2.24,2.7897A15.01444,15.01444,0,0,0,75.23869,93.321a14.51777,14.51777,0,0,0,1.51367.94631,14.04908,14.04908,0,0,0,1.5632.84847,13.45491,13.45491,0,0,0,1.66287.63811,12.82437,12.82437,0,0,0,1.73018.44364,11.97616,11.97616,0,0,0,1.7841.01561c.00744,0,.16654.22265.17311.22265a13.48333,13.48333,0,0,0,1.7773-.39589,13.22711,13.22711,0,0,0,1.73728-.40937,13.51036,13.51036,0,0,0,1.67951-.60081,13.939,13.939,0,0,0,1.61669-.76755,14.74493,14.74493,0,0,0,1.60328-.85567,23.19629,23.19629,0,0,0,2.53417-2.59486,14.48754,14.48754,0,0,0,.92938-1.55559,14.12313,14.12313,0,0,0,.88926-1.57749,13.86591,13.86591,0,0,0,.45269-1.75312,13.20728,13.20728,0,0,0,.30829-1.7654,13.139,13.139,0,0,0,.29815-1.78485,13.776,13.776,0,0,0-.14792-1.79686,13.48914,13.48914,0,0,0-.47075-1.734,13.80005,13.80005,0,0,0-.45536-1.74173,19.13461,19.13461,0,0,0-1.85045-3.08313,14.01952,14.01952,0,0,0-1.16743-1.37305,14.1481,14.1481,0,0,0-1.48015-1.02827,18.92034,18.92034,0,0,0-3.05734-1.82085,13.74841,13.74841,0,0,0-1.65715-.70349,14.11691,14.11691,0,0,0-1.79371-.17021,13.68045,13.68045,0,0,0-1.77764-.11729Zm70.00544,3.39452a9.512,9.512,0,0,0-1.623.17794c-.61492.105-1.2736-.039-1.88979.06735-.61555.10627-1.19459.42677-1.81094.53417s-1.26044.05989-1.87725.16826c-.61711.10843-1.20653.37447-1.8235.48365-.61746.10927-1.24174.179-1.85858.28883-.61755.11-1.24415.16694-1.8606.27729-.61737.11051-1.25436.10829-1.87015.219-.617.1109-1.21948.29712-1.83436.408-.61629.11116-1.24209.16342-1.85582.27438-.61716.11158-1.18986.46089-1.80394.57207s-1.269-.01245-1.87946.09813c-.56733.10292-1.138.18706-1.70529.28988s-1.13263.21567-1.69983.31832-1.10966.3419-1.67682.44432-1.13983.17413-1.707.27625-1.12353.26387-1.69065.36562-1.135.19909-1.70215.30039-1.147.13066-1.71417.23145c-.42338.07529-1.0241.27345-1.77191.40725-.53688.09606-1.14543.18207-1.79487.29845-.56767.10173-1.17308.19033-1.794.30169-.58517.105-1.1972.15735-1.80337.26612-.59827.10736-1.17957.33231-1.77359.43894-.6118.10983-1.25447-.00259-1.83533.10171-.63027.11318-1.19015.4682-1.75107.569-.66854.12008-1.27075.25642-1.78742.34924-1.10012.19764-.89655.1529-1.79167.31361a1.31423,1.31423,0,0,0-1.16484,1.10147,1.56507,1.56507,0,0,0,.59611,1.66c.24557.14121.43959.199.56454.27545a2.64151,2.64151,0,0,0,.95223.44816c.5884.10356,1.194.11021,1.78232.21392s1.16158.29311,1.7499.397,1.20231.06118,1.7905.16516,1.18516.15844,1.77333.26255,1.14445.38832,1.73261.49254,1.18037.18552,1.76852.28984,1.19636.09563,1.78451.20005,1.15166.34756,1.73982.45207,1.18507.15974,1.77323.26433,1.17352.225,1.7617.32968,1.16953.24782,1.75773.35252,1.21062.01745,1.79886.1222,1.17707.20636,1.76535.31115,1.166.26919,1.75429.374,1.1527.34419,1.74108.449,1.20842.032,1.79686.13686c.60745.10822,1.21449.21893,1.822.32716s1.21952.19156,1.82712.29979,1.20877.25269,1.81645.36091,1.19554.32786,1.8033.43606,1.2073.26271,1.81513.37087,1.2511.01736,1.859.12547,1.18349.39834,1.79149.50639,1.21511.22136,1.82319.32932,1.252.01414,1.86018.122,1.19574.33213,1.804.43989a11.014,11.014,0,0,0,1.92039.16634l.00087.04925a12.35782,12.35782,0,0,0,1.90429-.11311,11.58946,11.58946,0,0,0,1.85445-.45562,10.11212,10.11212,0,0,0,1.71962-.75931,9.85079,9.85079,0,0,0,1.55639-1.05682,12.72443,12.72443,0,0,0,2.18723-3.0037,9.89668,9.89668,0,0,0,.69771-1.709,10.53546,10.53546,0,0,0,.63158-1.77267,11.19588,11.19588,0,0,0-.02954-1.88213,11.578,11.578,0,0,0-.32162-1.8383,11.77884,11.77884,0,0,0-.26732-1.708,10.764,10.764,0,0,0-.89262-1.47863,10.28064,10.28064,0,0,0-.97264-1.39908,9.89648,9.89648,0,0,0-1.25639-1.14128,10.0092,10.0092,0,0,0-1.25641-1.17071,5.63921,5.63921,0,0,0-3.23918-1.06226A9.47677,9.47677,0,0,0,153.54959,72.1933ZM13.70285,71.986a9.43334,9.43334,0,0,0-1.93781.23258,9.25354,9.25354,0,0,0-1.95387.368A9.53426,9.53426,0,0,0,8.218,73.77474a10.21068,10.21068,0,0,0-1.56671,1.20564,12.95026,12.95026,0,0,0-1.08474,1.65621,11.75547,11.75547,0,0,0-.96534,1.67171,10.39026,10.39026,0,0,0-.67152,1.81538,9.82614,9.82614,0,0,0-.368,1.91888,9.80091,9.80091,0,0,0,.21666,1.94317,10.39633,10.39633,0,0,0,.45992,1.898A12.49,12.49,0,0,0,5.29056,87.528a13.5728,13.5728,0,0,0,.793,1.59525,10.84823,10.84823,0,0,0,1.20127,1.31827,9.65605,9.65605,0,0,0,1.43425,1.06329,9.20478,9.20478,0,0,0,1.654.64832,9.3742,9.3742,0,0,0,1.69459.48122,10.65516,10.65516,0,0,0,1.75938.08284l.00069.00426a11.9712,11.9712,0,0,0,1.23785.00822c.52061-.0544,1.02528-.21376,1.53947-.29532.5178-.08214,1.03374-.15248,1.54309-.25034.51675-.09927,1.032-.18423,1.53805-.28738.663-.13533,1.337-.215,2.00133-.33705.59065-.10828,1.1601-.33324,1.75093-.44129.59114-.10812,1.22257.00446,1.81356-.10338.59157-.108,1.13806-.46216,1.72915-.56979.592-.10779,1.17867-.24268,1.76981-.3501.59228-.10762,1.18558-.207,1.77671-.31421.59256-.10746,1.1954-.15448,1.78648-.26146.59278-.1073,1.22148-.01108,1.81244-.11786.593-.10713,1.17536-.26678,1.76615-.37333.5931-.107,1.19029-.18421,1.78085-.29054.59318-.1068,1.16754-.31022,1.75782-.41633.59323-.10664,1.20026-.12736,1.7902-.23324.59322-.10648,1.15842-.35907,1.748-.46473.59319-.10631,1.17557-.26177,1.76466-.3672.59312-.10615,1.21626-.03185,1.80485-.137.593-.106,1.17951-.23447,1.76755-.33943.59288-.10583,1.163-.3242,1.7504-.42894.59326-.10577,1.20835-.07232,1.79566-.17692.59511-.106,1.17828-.26066,1.76687-.36537.59424-.10571,1.18785-.19493,1.775-.29929.59337-.10546,1.18983-.17172,1.77552-.27572.59585-.1058,1.15353-.40285,1.741-.50707.59289-.1052,1.18083-.21272,1.76468-.31624.59322-.10517,1.19225-.14985,1.77564-.25322a1.536,1.536,0,0,0,1.3255-1.258c.03525-.32562-.14406-.34505-.10875-.67065a1.339,1.339,0,0,0-.925-1.47872c-.135-.0497-.14664-.02951-.28-.0836a4.44437,4.44437,0,0,0-.99543-.357c-.58714-.10309-1.15462-.3177-1.74176-.4209s-1.16607-.25281-1.75319-.35613-1.20925-.0077-1.79636-.11114-1.14207-.38913-1.72917-.49268-1.17321-.21246-1.7603-.31612-1.20979-.0056-1.79688-.10937-1.15355-.324-1.74063-.42791-1.17378-.20969-1.76086-.31367-1.16552-.2565-1.7526-.36059-1.16786-.24341-1.75493-.3476-1.17544-.20093-1.76252-.30522-1.17491-.20411-1.762-.3085c-.58681-.10434-1.17127-.2219-1.75811-.32634s-1.19745-.0756-1.78433-.18014-1.18266-.15944-1.76958-.26408-1.17652-.19465-1.76349-.29939-1.13153-.44729-1.71856-.55213-1.19224-.108-1.77932-.21291-1.189-.12717-1.77612-.23219-1.1346-.43192-1.72179-.537-1.20494-.03982-1.79219-.145-1.175-.20785-1.76234-.31314-1.19261-.11071-1.78-.21609-1.1367-.42318-1.72416-.52865-1.16809-.24912-1.75562-.35468-1.20719-.03253-1.7948-.13817A11.07852,11.07852,0,0,0,13.70285,71.986Zm3.97582-24.25952a8.739,8.739,0,0,0-1.63758.19053,9.2374,9.2374,0,0,0-1.67251.21646,10.60235,10.60235,0,0,0-1.4065.92984,11.29253,11.29253,0,0,0-1.45579.8289,11.31719,11.31719,0,0,0-1.13278,1.28054A10.12213,10.12213,0,0,0,9.30442,52.484a11.4274,11.4274,0,0,0-1.45569,3.07869,9.86709,9.86709,0,0,0-.12729,1.71235,10.69165,10.69165,0,0,0,.027,1.71457,13.33468,13.33468,0,0,0,.57494,1.61908,13.54972,13.54972,0,0,0,.35275,1.72856,11.07932,11.07932,0,0,0,.81111,1.56982A10.09323,10.09323,0,0,0,10.57605,65.3a9.856,9.856,0,0,0,1.39615,1.07113,10.143,10.143,0,0,0,1.46538.94725,11.56169,11.56169,0,0,0,1.63359.61305,13.283,13.283,0,0,0,1.68627.43892c.58794.11218,1.16449.29609,1.75753.40872.58733.11156,1.19409.13548,1.7876.2477.58677.11094,1.17261.24447,1.76657.35627.58629.11036,1.1727.24048,1.7671.35187.5859.10981,1.16561.2757,1.76044.38672.58562.10929,1.19752.10249,1.7928.21313.58423.10859,1.13246.43834,1.727.54841.58465.10825,1.22-.029,1.81551.0808.58516.10794,1.1807.18942,1.77719.29906.58571.10767,1.17552.22422,1.773.33367.58549.10727,1.16574.27562,1.76326.38474.58514.10686,1.13918.41786,1.73658.52664.58516.10655,1.186.16127,1.78362.26978.58482.1062,1.17046.24278,1.76783.351.58619.10617,1.19614.1164,1.795.2246.58567.10581,1.16214.29817,1.76051.406.58684.10579,1.2063.06609,1.80588.17394.587.1056,1.18914.16264,1.78888.27031.56845.102,1.10478.38352,1.67381.48471.56809.101,1.14085.17872,1.71043.27921.568.10021,1.15676.08711,1.72709.18709.56622.09926,1.10958.33721,1.679.43655.56717.09894,1.14479.14864,1.716.24794.56838.0988,1.13625.2137,1.70952.31314.568.09854,1.132.236,1.70572.33541.829.14368.86225-.04847,1.6912.09521s.82944.14067,1.65841.2842c.08671.01471.15314.08085.23846.08085a1.54518,1.54518,0,0,0,1.33052-.58435,1.50745,1.50745,0,0,0-.1594-1.64739c-.1272-.19123-.21448-.34243-.28076-.45406A2.07862,2.07862,0,0,0,64.296,73.427c-.50947-.29469-1.00186-.6221-1.51427-.9187-.50944-.29488-.96366-.68868-1.47611-.98552-.50942-.29509-.99675-.63186-1.50924-.92893-.50941-.29529-1.12173-.41678-1.63426-.71409-.5094-.29549-.92751-.752-1.44009-1.04956-.50939-.29569-1.01765-.59706-1.53028-.89483-.50938-.29589-1.12334-.41567-1.636-.71367-.50736-.29491-.95694-.69311-1.46761-.99013q-.76132-.44282-1.52669-.8905c-.50773-.29551-.99237-.63465-1.5035-.93232-.50793-.29581-.99955-.62359-1.51092-.92159-.50813-.29611-1.0218-.58673-1.53341-.885-.50833-.29641-1.02069-.59-1.53254-.8886-.50854-.2967-1.01207-.60607-1.52416-.905-.50875-.297-1.08756-.47817-1.59988-.77742-.509-.29729-1.04518-.55213-1.55774-.85169-.50915-.29757-1.02765-.58341-1.54044-.88327-.50934-.29785-.89856-.80532-1.41157-1.10547-.50747-.29691-1.06894-.50575-1.58006-.805-.50811-.29744-1.06052-.52349-1.57231-.82324-.50874-.298-.9054-.7915-1.41784-1.09178-.50934-.29846-1.10808-.44868-1.62115-.74947-.50991-.29895-1.023-.59676-1.53668-.898-.50852-.29827-1.07029-.51014-1.58255-.81074-.51-.29929-.91269-.78582-1.42647-1.08745-.50944-.2991-1.00112-.63276-1.51433-.9342s-1.12023-.44756-1.63727-.75138a13.02427,13.02427,0,0,0-1.60551-.97249,10.38544,10.38544,0,0,0-1.82438-.42945A9.165,9.165,0,0,0,17.67867,47.72646Zm131.90168.16319a9.32263,9.32263,0,0,0-1.77465.21019,10.56117,10.56117,0,0,0-1.808.25137,13.57652,13.57652,0,0,0-1.55393.95808c-.55.30333-1.17583.47344-1.72288.7846-.54779.31157-1.01411.76468-1.558,1.08145-.54517.31754-1.10819.60184-1.64849.92192-.54256.32142-1.11.59694-1.64671.91822-.54206.32449-1.14.54991-1.67509.87147-.62188.37346-1.20391.812-1.82569,1.1836s-1.274.69-1.897,1.05751c-.51746.305-.9141.81919-1.4356,1.12622-.51748.30466-1.158.405-1.68.71194-.51511.30294-1.04218.59063-1.56221.89613-.5153.30273-1.0279.61561-1.54853.92115-.51556.30257-.96356.72639-1.48483,1.032-.51586.30243-1.05036.57963-1.5723.88533-.51623.30235-1.00486.65882-1.52749.96463-.51663.30231-1.03867.60269-1.562.90864-.51707.30228-1.07427.54351-1.5983.8496-.51752.30228-.99345.68375-1.51818.99-.518.3023-1.051.58706-1.57642.89344-.51808.3021-1.04977.5893-1.57545.8956-.51788.30175-1.068.55678-1.5936.86281-.51668.30083-.97747.70639-1.502,1.01156-.51795.30136-1.15254.41106-1.67846.71685-.519.30175-.916.82224-1.44307,1.12848-.51721.30053-1.02449.62725-1.54978.93229-.52012.302-1.04842.59926-1.57675.90589-.52024.30193-1.07528.55321-1.60377.85975a1.56553,1.56553,0,0,0-.87556,1.59763c.06515.28518.11695.27345.18246.55854a1.66678,1.66678,0,0,0,1.5373,1.25445,6.56581,6.56581,0,0,0,.77869-.075,4.31314,4.31314,0,0,0,.72628.0282c.9156-.16374.88935-.31039,1.8049-.47447.58889-.10574,1.16967-.26119,1.76014-.36724.58918-.10582,1.21145-.03183,1.80211-.138.58945-.10593,1.17549-.235,1.76631-.34126.5897-.106,1.15971-.32533,1.75067-.43174.58992-.10623,1.20542-.074,1.79651-.18063.59011-.10642,1.1719-.26233,1.76309-.36914.58929-.10646,1.182-.19731,1.77223-.30418.58964-.10676,1.18674-.17527,1.77726-.28244.59-.10708,1.14544-.40624,1.73617-.51375.59023-.10742,1.18019-.2182,1.7711-.32607.59047-.1078,1.1921-.15625,1.78316-.26451.59067-.10819,1.20629-.08219,1.79746-.19087.59084-.10862,1.14922-.39491,1.74047-.504.591-.10907,1.18251-.21589,1.7738-.32549.59092-.10952,1.17726-.24416,1.7684-.35422s1.18894-.1842,1.78015-.2948,1.2033-.11024,1.79454-.22142,1.19129-.17642,1.7825-.28819,1.14481-.42237,1.73592-.53476,1.21693-.04336,1.80789-.15639c.59157-.11314,1.18407-.22131,1.7753-.3351s1.14337-.42905,1.73416-.5435,1.20381-.11311,1.79407-.22823,1.18059-.22868,1.77024-.34449,1.18849-.18366,1.77742-.30018a10.46483,10.46483,0,0,0,1.67463-.44039,9.6899,9.6899,0,0,0,1.55579-.76359,9.44637,9.44637,0,0,0,1.39146-1.03059,9.71323,9.71323,0,0,0,1.19437-1.25413,10.60649,10.60649,0,0,0,.83017-1.514,11.43525,11.43525,0,0,0,.65286-1.57955,12.83088,12.83088,0,0,0,.458-1.64457,12.40231,12.40231,0,0,0,.49628-1.873,10.12017,10.12017,0,0,0-.18832-1.92578,9.22709,9.22709,0,0,0-.54286-1.83614,9.46179,9.46179,0,0,0-.63945-1.83127,10.4756,10.4756,0,0,0-1.30988-1.4317,11.43308,11.43308,0,0,0-1.41958-1.28939,10.95764,10.95764,0,0,0-1.38262-.79979,10.42338,10.42338,0,0,0-1.36193-.8705,4.92939,4.92939,0,0,0-3.175-.39512ZM137.64978,26.904a9.25687,9.25687,0,0,0-1.66532.18658,9.69089,9.69089,0,0,0-1.70008.2059,10.97814,10.97814,0,0,0-1.44273.91908,11.68848,11.68848,0,0,0-1.49162.81626,15.391,15.391,0,0,0-1.16558,1.24062c-.38945.38509-.79672.77028-1.17129,1.2203-.422.50686-.88607.97811-1.30892,1.48309-.42318.50537-.93447.936-1.35816,1.43977-.42454.50473-.7907,1.05787-1.21542,1.56119s-.89508.96733-1.31965,1.46947-.66437,1.15983-1.08845,1.661c-.49523.58584-.67717.43206-1.17228,1.018-.49651.58759-.51107.57529-1.00757,1.16288s-.48892.594-.9852,1.18183c-.39465.46836-.68286,1.02606-1.077,1.49394-.39443.46827-.81237.91628-1.20628,1.38408-.39423.46819-.74172.97528-1.13544,1.443-.394.46811-.79108.93324-1.18462,1.4009-.39385.468-.84319.889-1.23656,1.35656-.39423.46863-.71976.99464-1.11353,1.46287-.394.46843-.805.92211-1.19849,1.39015-.39369.46825-.80217.92368-1.19543,1.39155-.39343.46808-.8299.89962-1.22292,1.36733-.39319.46791-.69527,1.012-1.08807,1.47957-.39295.46775-.95741.79112-1.35,1.25855-.39318.46813-.59437,1.09717-.98719,1.565s-.76424.95329-1.15674,1.42081-.79108.92963-1.18326,1.39687-.83108.895-1.223,1.362-.94186.80108-1.33347,1.26782-.742.96786-1.13335,1.43438-.80547.91369-1.19659,1.38a1.60264,1.60264,0,0,0,.217,2.15225c.251.22889.19182.29376.44274.5228a1.56534,1.56534,0,0,0,1.07641.26773,1.36683,1.36683,0,0,0,.70269-.2401c.52495-.305,1.14175-.45194,1.66671-.75714s1.03823-.63072,1.56318-.93613.9922-.71025,1.51712-1.01588,1.12084-.48972,1.64572-.79555,1.02471-.65513,1.54954-.96114,1.058-.59837,1.58271-.90457c.52493-.3063,1.06947-.5789,1.59415-.88527.52488-.30649.95126-.7814,1.47585-1.08795.52481-.30668,1.04782-.61612,1.5723-.92283.52473-.30685,1.07983-.56144,1.60419-.8683.52464-.307,1.11813-.4961,1.64235-.8031.52454-.30719.95765-.77,1.48172-1.07717.52442-.30734,1.04984-.61246,1.57374-.91973.52429-.30749,1.03547-.63675,1.5592-.94414.52414-.30764,1.06658-.58348,1.59012-.891.524-.30777,1.105-.51788,1.62832-.8255.52381-.3079,1.07115-.57517,1.59427-.88289.52443-.3085.946-.791,1.46971-1.09933.52408-.30852,1.14166-.45751,1.665-.7658.52371-.30853,1.04977-.61231,1.57266-.92059.52331-.30853.9421-.79341,1.46455-1.10166.5229-.30853,1.10544-.51505,1.62743-.82327q.7851-.46357,1.56973-.925c.52244-.30872,1.06944-.57487,1.59087-.88323s1.06055-.58577,1.58092-.89375,1.03634-.6223,1.55561-.92986a16.64686,16.64686,0,0,0,1.50361-1.00641,14.02543,14.02543,0,0,0,1.387-1.16669,11.58412,11.58412,0,0,0,1.08985-1.44084,10.17347,10.17347,0,0,0,.90361-1.53991,9.53226,9.53226,0,0,0,.64418-1.65655,10.03251,10.03251,0,0,0,.58549-1.71713,11.25606,11.25606,0,0,0-.06338-1.8127,11.9843,11.9843,0,0,0-.30534-1.71563,11.22268,11.22268,0,0,0-.27327-1.74455,9.28574,9.28574,0,0,0-.93637-1.49369,8.63219,8.63219,0,0,0-1.06464-1.37249,8.87,8.87,0,0,0-1.37185-1.05336,9.71161,9.71161,0,0,0-1.39523-1.05938,11.61019,11.61019,0,0,0-1.633-.65978,11.45922,11.45922,0,0,0-1.57647-.17071A10.07807,10.07807,0,0,0,137.64978,26.904Zm-107.8192-.16025a10.549,10.549,0,0,0-2.487.34372,14.19775,14.19775,0,0,0-1.682.25916,10.44948,10.44948,0,0,0-1.42512.9237,9.5715,9.5715,0,0,0-1.4594.84369,8.769,8.769,0,0,0-1.04694,1.3195A8.75479,8.75479,0,0,0,20.793,31.8109a9.78117,9.78117,0,0,0-.6921,1.52687,11.4896,11.4896,0,0,0-.50657,1.61646,11.66006,11.66006,0,0,0-.08787,1.88485,10.71258,10.71258,0,0,0,.09753,1.88351,10.02854,10.02854,0,0,0,.72617,1.73717,10.04816,10.04816,0,0,0,.61151,1.77976A10.70567,10.70567,0,0,0,22.05723,43.765a11.87673,11.87673,0,0,0,1.37784,1.294,13.82681,13.82681,0,0,0,1.62108.95954c.50844.30408,1.001.63451,1.50948.93794.50884.30362,1.04877.5547,1.55757.85763.50921.30318,1.01615.60964,1.52524.9121.50955.30274.98183.66774,1.49117.96973.50988.30231,1.06521.52724,1.57478.82877.51019.3019,1.00864.62283,1.51842.92391.51047.30149,1.0107.61945,1.52067.92009.51072.30109.9925.65043,1.50263.95064.511.3007,1.08174.4986,1.592.7984.51241.30105.91095.795,1.42257,1.09512.51253.30064,1.1513.38472,1.66294.68438.51262.30024,1.03869.576,1.55031.87524.51267.29984,1.02061.60618,1.53218.905.51268.29943.99389.65115,1.50537.9495.51266.299.92067.776,1.432,1.07389.51261.29865,1.05157.55038,1.56276.84786.51252.29825,1.00931.62178,1.5203.91883.5124.29787,1.07351.51,1.58428.80661.51224.29749.98.66954,1.49052.96576.51206.29712,1.09791.46484,1.60812.76065.5135.29772,1.05127.55119,1.56279.84755.51273.29706.9328.75165,1.44344,1.04731.51193.2964,1.03448.57189,1.5442.86685.51109.29576,1.07857.49137,1.58733.78565.51158.2959.95145.713,1.46056,1.00733s1.04206.54461,1.5486.83741a7.0653,7.0653,0,0,0,1.12735.50817c.15143.05434.295.14889.464.21656.18153.07337.40305-.0803.59342-.0803a1.29254,1.29254,0,0,0,.77881-.2422,1.354,1.354,0,0,0,.67242-1.153c0-.1426.146-.25262.15254-.34676a2.083,2.083,0,0,0-.54079-1.42632c-.564-.669-.56222-.67051-1.12639-1.3394-.56507-.67-.58441-.65367-1.14949-1.32365s-.537-.69369-1.102-1.36366c-.38616-.45784-.68636-.98931-1.07363-1.44843-.38633-.458-.73726-.947-1.12468-1.40628-.38653-.45819-.928-.78667-1.31562-1.246-.38673-.45833-.6326-1.03654-1.02037-1.496-.38695-.45844-.77031-.92089-1.15828-1.38034-.38718-.45852-.93139-.78531-1.31958-1.24478-.38656-.45755-.68328-.99187-1.07083-1.45031q-.58042-.68661-1.16083-1.3757c-.38736-.45789-.73759-.948-1.12588-1.40664-.38776-.458-.74871-.93951-1.13739-1.39821-.38817-.4581-.78261-.91163-1.17168-1.37036-.38858-.45815-.78111-.91366-1.17058-1.37238-.389-.45817-.76827-.9253-1.15814-1.384-.38943-.45816-.88245-.82881-1.27273-1.2874-.38987-.45812-.81856-.88365-1.20925-1.34214-.38983-.45746-.79135-.90535-1.182-1.36312-.39042-.45752-.59755-1.072-.98876-1.52978-.391-.45752-.86094-.848-1.25271-1.30573-.39157-.45748-.84735-.86034-1.23968-1.318-.39179-.457-.613-1.0608-1.0055-1.51786s-.9168-.80131-1.31007-1.25839-.78889-.91239-1.18286-1.36943-.86513-.84763-1.2598-1.30456-.62646-1.05488-1.02181-1.51164a9.55069,9.55069,0,0,0-1.416-1.38136,9.05442,9.05442,0,0,0-1.77794-.85056,9.03615,9.03615,0,0,0-1.81156-.76738A9.68561,9.68561,0,0,0,29.83058,26.74378ZM47.80535,11.60023a10.52326,10.52326,0,0,0-1.78545.18532,10.18129,10.18129,0,0,0-1.815.22272,9.26485,9.26485,0,0,0-1.534.9911,9.21569,9.21569,0,0,0-1.52959.97513,10.28038,10.28038,0,0,0-1.08288,1.45741,12.17748,12.17748,0,0,0-1.69681,3.04293,10.00591,10.00591,0,0,0-.51265,1.62939,9.2324,9.2324,0,0,0-.01955,1.70888,9.34652,9.34652,0,0,0,.16254,1.69867,10.80433,10.80433,0,0,0,.73938,1.5381,11.40053,11.40053,0,0,0,.54119,1.61881,14.15194,14.15194,0,0,0,.94127,1.42525c.41646.544.85949,1.07316,1.29572,1.59461.44312.52968.99685.95925,1.43681,1.46967.47669.55461.45371.57437.92911,1.13008.389.45854.82413.87752,1.21254,1.33553.38886.45855.77416.91961,1.16239,1.37765.38933.45932.72277.96548,1.11149,1.4243.38907.45924.84611.86041,1.23458,1.31917.38882.45916.76009.9327,1.14833,1.39139.38858.45909.76189.93063,1.14991,1.38927.38834.459.73327.9543,1.12107,1.41288.38811.459.86662.841,1.25421,1.29958.38789.45889.60427,1.0623.99166,1.52079.38768.45883.96645.75584,1.35364,1.21428.38748.45879.79591.89952,1.18292,1.35793.38781.45936.76915.92384,1.1565,1.38285.38752.4592.728.9577,1.11513,1.41656.38725.45905.61638,1.05109,1.0032,1.50981.387.4589.81475.883,1.20133,1.34164.38672.45877.75038.93664,1.13672,1.39511.38649.45864.84811.85367,1.23423,1.312.38665.459.70664.97386,1.09295,1.4326s.8863.82147,1.27228,1.28.81033.88444,1.196,1.34271.63128,1.03414,1.01665,1.49219.78847.901,1.17357,1.35882.858.84169,1.24282,1.29936.66177,1.00589,1.04638,1.4634a1.6077,1.6077,0,0,0,1.21345.51435,1.57558,1.57558,0,0,0,.69822-.15023c.29678-.14817.31435-.11275.6113-.26057a1.49069,1.49069,0,0,0,.599-1.906c-.19927-.53965-.40168-1.07812-.60127-1.6178-.19941-.53923-.34218-1.09945-.54188-1.63873s-.27138-1.12609-.47134-1.66544-.56919-1.016-.76938-1.55545-.39811-1.0798-.59851-1.61936-.42459-1.07033-.62517-1.61-.36674-1.09223-.56747-1.632-.29544-1.11918-.49629-1.65917-.35767-1.09646-.55862-1.63662-.59133-1.01-.79236-1.55036c-.319-.85812-.14557-.92262-.46455-1.78076s-.31394-.86-.63293-1.71818c-.211-.5676-.61452-1.06511-.82649-1.6352-.21119-.568-.312-1.17839-.5242-1.74861q-.31642-.85036-.63249-1.70435c-.21143-.56754-.37721-1.15318-.58962-1.72238-.212-.568-.391-1.14941-.60393-1.71887-.21259-.56845-.43281-1.13493-.64639-1.70454-.21325-.56875-.43129-1.13646-.64554-1.70612-.21376-.56835-.41551-1.14188-.63027-1.71089-.21465-.56874-.55647-1.08984-.77213-1.659-.21558-.569-.47882-1.12-.69542-1.68914s-.44748-1.13255-.66506-1.70149c-.21766-.56917-.21032-1.22468-.429-1.79353s-.53437-1.10038-.75411-1.66866-.51833-1.10574-.73911-1.67321-.2322-1.21647-.454-1.78289a12.02049,12.02049,0,0,0-.9228-1.53583,10.66927,10.66927,0,0,0-1.00178-1.45836,9.70671,9.70671,0,0,0-1.30059-1.18736,9.80842,9.80842,0,0,0-1.32-1.19559,10.26775,10.26775,0,0,0-1.60735-.78886,11.70316,11.70316,0,0,0-1.76346-.2941,12.47316,12.47316,0,0,0-1.74592-.36991C48.21336,11.41263,48.0061,11.60023,47.80535,11.60023Zm71.79525.12788c-.38956,0-.77719.05724-1.186.09393a13.31622,13.31622,0,0,0-1.86561.05359,10.43233,10.43233,0,0,0-1.6807.80181,9.8178,9.8178,0,0,0-1.6828.7688,10.108,10.108,0,0,0-1.30293,1.31348,10.90511,10.90511,0,0,0-1.19861,1.38807,13.05879,13.05879,0,0,0-.98995,1.5555,15.91476,15.91476,0,0,0-.84725,1.655c-.20421.54712-.33694,1.12068-.54148,1.66734s-.46522,1.072-.67,1.61828-.18335,1.17717-.38831,1.723-.63313,1.00766-.83817,1.55316-.42794,1.08409-.633,1.62928-.40045,1.09385-.60541,1.63877c-.20132.53505-.27258,1.11885-.47375,1.65361-.20138.53533-.43176,1.05959-.63292,1.59468s-.34529,1.09141-.54614,1.62628-.40552,1.06811-.606,1.6028-.469,1.04373-.669,1.57827-.316,1.10032-.51549,1.63476-.41988,1.06087-.61878,1.59523c-.21663.58169-.45151,1.15643-.66784,1.73793s-.48556,1.14347-.70164,1.72492-.32081,1.20437-.53664,1.78576-.64183,1.085-.85741,1.66631-.19625,1.2499-.41159,1.83121c-.21553.58182-.4049,1.17313-.62014,1.7548s-.438,1.16037-.653,1.7419-.48717,1.14174-.70184,1.72313-.623,1.09122-.8374,1.67248-.37834,1.18107-.59246,1.76223-.45618,1.15195-.67,1.733-.33513,1.19606-.54872,1.777-.50864,1.13188-.722,1.71273a1.54424,1.54424,0,0,0,.69638,1.75611c.296.1965.32409.15414.62019.35051.2544.16908.48561.41629.77289.41629a1.629,1.629,0,0,0,1.1369-.51589c.32918-.346.24693-.42467.57793-.76888.5138-.53215,1.13188-.97072,1.60537-1.53679.60073-.71815.56232-.75028,1.16306-1.46843.60215-.71982.61448-.7095,1.21663-1.42933.60312-.721.6331-.6959,1.23622-1.41689s.45357-.84608,1.05666-1.56709c.38814-.46416.77448-.93117,1.16394-1.3969.38836-.4644.82381-.89071,1.21345-1.35657.38858-.4646.88262-.84221,1.27244-1.30816.38882-.46477.63988-1.046,1.02989-1.512q.58222-.6957,1.16811-1.39153c.38859-.4641.75835-.945,1.148-1.41015.389-.46436.80678-.90561,1.19684-1.3709.38944-.46457.86613-.85686,1.25657-1.32227.38988-.46473.81627-.89959,1.20711-1.36507.3903-.46484.62637-1.06,1.01759-1.52551.39074-.46491.92354-.81107,1.31516-1.27654.39064-.46432.78581-.92539,1.17729-1.39017.39124-.46449.62624-1.06126,1.01828-1.52613.39182-.46461.87444-.85316,1.267-1.31806q.58859-.697,1.17974-1.39306c.39268-.46435.8233-.89694,1.21666-1.36138s.81429-.90575,1.20829-1.37019.78248-.93374,1.17709-1.39809.786-.93155,1.18115-1.39572.80078-.91952,1.19648-1.38342a16.56487,16.56487,0,0,0,1.01091-1.53949,13.45377,13.45377,0,0,0,.88833-1.59652,10.98635,10.98635,0,0,0,.672-1.68609,10.17449,10.17449,0,0,0,.61813-1.74165,9.2823,9.2823,0,0,0-.0772-1.84615,9.6614,9.6614,0,0,0-.41566-1.78133,10.95209,10.95209,0,0,0-.44167-1.8007,10.8994,10.8994,0,0,0-1.07308-1.5171,9.5435,9.5435,0,0,0-1.18612-1.39729,8.729,8.729,0,0,0-1.49164-1.04869,8.9457,8.9457,0,0,0-1.54594-1.00559,9.79564,9.79564,0,0,0-1.78507-.51534A11.78688,11.78688,0,0,0,119.6006,11.72811Zm-48.59553-8.134a9.21181,9.21181,0,0,0-1.8264.21858,9.69921,9.69921,0,0,0-1.8524.30066,10.57748,10.57748,0,0,0-1.54733,1.06214,11.07468,11.07468,0,0,0-1.56392,1.018,12.23158,12.23158,0,0,0-1.05459,1.33131,10.56,10.56,0,0,0-1.0059,1.34759,9.27453,9.27453,0,0,0-.775,1.49848,8.87744,8.87744,0,0,0-.54026,1.61743,9.151,9.151,0,0,0-.02934,1.7058,9.99224,9.99224,0,0,0,.1428,1.69748,12.86132,12.86132,0,0,0,.693,1.55941c.18629.51587.15061,1.1125.34042,1.62689.18988.51459.3636,1.03567.556,1.54915s.39554,1.0232.58947,1.53594.51828.97606.71273,1.48845c.26061.6883.23135.69938.49176,1.38776s.31765.66676.57766,1.35529c.207.55061.4106,1.10466.61875,1.65928.2066.55047.34562,1.12869.55361,1.68386.20619.55037.49693,1.0719.70476,1.62763.20581.55032.39132,1.11141.599,1.6677.20544.55027.39347,1.11052.601,1.66732.205.55.35808,1.123.56533,1.68.20454.54972.52154,1.06167.72854,1.61887.20414.54953.19934,1.18087.4061,1.73829.20379.5494.64375,1.01573.8503,1.57339.20291.54786.43323,1.09029.639,1.64668.20282.54837.39943,1.10393.60524,1.66113.20275.54893.34959,1.12351.55543,1.68151.2027.5495.21313,1.175.419,1.73375.20267.55007.45724,1.08619.66315,1.64572.20244.55011.37842,1.11518.58415,1.67487.20213.54987.49834,1.07049.70381,1.63.20193.54993.32392,1.13457.52923,1.69425.20164.54968.5447,1.05292.74974,1.61237.20189.55088.45275,1.08928.65806,1.65.20157.55047.23312,1.16863.43811,1.72893.20174.55141.42709,1.09962.63227,1.66087.20163.55156.51284,1.06853.71791,1.6299A1.53006,1.53006,0,0,0,79.791,63.55c.06248,0,.13-.0548.19313-.06207.261-.03212.26311-.016.524-.04878A1.62032,1.62032,0,0,0,81.90186,61.9c-.00033-.877-.19514-.877-.19527-1.754-.00013-.878-.00333-.878-.00346-1.756-.00013-.87676.06041-.87677.06028-1.75353-.00013-.87881.13655-.87883.13642-1.75764-.00013-.88023-.18054-.88021-.18067-1.76044s.00235-.88023.00226-1.76046c.00005-.599-.02521-1.199-.02518-1.79984,0-.59934.03683-1.19958.03683-1.80066,0-.59968.11314-1.20019.11307-1.80145-.00007-.6.04688-1.20074.04673-1.80216-.00015-.60026-.20241-1.20114-.20267-1.8027-.00025-.59956.18445-1.19983.18407-1.80055-.00039-.6.00455-1.20062.004-1.80167-.00053-.60045-.206-1.20115-.20675-1.80248-.0007-.60082.11675-1.20218.11585-1.80375-.0009-.60073,0-1.2018-.0011-1.80314s.04689-1.20283.04553-1.80453.03291-1.20359.03128-1.80557-.011-1.20408-.0129-1.80625-.00854-1.20452-.01076-1.80681.00879-1.20486.00624-1.80718c-.00255-.60248-.1407-1.20427-.14361-1.80655-.00291-.60323-.05649-1.206-.05978-1.80892s-.02169-1.20544-.02538-1.80788.23393-1.20617.22981-1.808-.11179-1.20265-.11635-1.80376-.09341-1.20112-.09845-1.80136a10.89783,10.89783,0,0,0,.06716-1.73543,9.48033,9.48033,0,0,0-.62234-1.61866,9.01191,9.01191,0,0,0-.75244-1.53415A9.24833,9.24833,0,0,0,79.226,7.28409a9.96543,9.96543,0,0,0-1.10344-1.32373,11.37987,11.37987,0,0,0-1.41785-.99377,13.72687,13.72687,0,0,0-1.63121-.579,12.36561,12.36561,0,0,0-1.96334-.766A10.24707,10.24707,0,0,0,71.00507,3.59408ZM96.354,3.61917a10.05848,10.05848,0,0,0-1.94584.23131,11.51644,11.51644,0,0,0-1.973.30583,12.81613,12.81613,0,0,0-1.5604.95281,11.70436,11.70436,0,0,0-1.60253.85934,9.83963,9.83963,0,0,0-1.21339,1.35059A9.1629,9.1629,0,0,0,86.9682,8.747a9.32216,9.32216,0,0,0-.809,1.61445,10.23306,10.23306,0,0,0-.55906,1.73713,12.11283,12.11283,0,0,0-.07423,1.82447c-.00439.5978-.06839,1.19569-.07238,1.79436-.004.59827.23394,1.19847.23032,1.79748-.00361.59869-.24541,1.19634-.24867,1.79564-.00325.59907-.0254,1.19838-.02831,1.79792s.00459,1.19913.002,1.79888.13387,1.20012.13157,1.8-.03552,1.19985-.03753,1.79986.05687,1.20049.05512,1.80057c-.00175.60032-.00765,1.20053-.00915,1.80064-.00151.60044-.07575,1.20057-.077,1.80066-.00129.60052.087,1.201.08592,1.801-.00108.60056-.02467,1.20079-.02557,1.80074-.00089.60055-.02133,1.20073-.022,1.80054-.00073.60162-.05788,1.20277-.05845,1.80351-.00058.60135.11763,1.20231.11718,1.80263-.00045.601-.22506,1.2013-.22539,1.80114-.00034.60057.24984,1.20065.24959,1.79992-.00024.6001.02727,1.19949.02709,1.79813-.00017.60087-.0085,1.201-.00862,1.80023s-.06143,1.19767-.06152,1.7952-.20672,1.1941-.20679,1.78974c-.00021.83653.0534.83654.05316,1.67308-.00025.83748-.03014.83747-.03038,1.675-.00025.83628.09826.83631.098,1.6726-.00024.83825-.08717.83822-.08741,1.67647-.00025.83959.1486.83964.14836,1.67924s.05028.83963.04986,1.67923a1.48906,1.48906,0,0,0,.9618,1.52066c.27974.08163.28561.06044.56489.14364.1419.04258.29947-.05089.44069-.05089a1.52839,1.52839,0,0,0,1.4467-.79765c.11059-.2439.06555-.264.17838-.50692.19106-.4072.39676-.81272.55044-1.23463.20644-.56787.45111-1.12641.66048-1.70211.20676-.56849.23166-1.20737.44117-1.7831.20708-.569.41247-1.14263.62213-1.71836.2074-.56952.47294-1.12153.68277-1.69724.20773-.57.545-1.096.755-1.67169.20807-.57034.24775-1.20525.45795-1.78085.20841-.57067.42023-1.143.63064-1.7185.20874-.571.39471-1.15295.60534-1.72833.20836-.56918.45217-1.12783.66228-1.701.20885-.56978.52481-1.1025.73531-1.67593.20935-.57031.46364-1.1261.67452-1.69971.20984-.57078.23079-1.21289.44206-1.78664.21032-.57117.59494-1.07977.8066-1.65359.21022-.5699.42612-1.13913.63757-1.71135.21086-.57062.23015-1.21343.44216-1.78607.21148-.57124.53442-1.10237.747-1.67533q.31815-.85763.63958-1.71681c.21236-.57128.47135-1.126.6846-1.69845.2131-.572.4601-1.132.674-1.70483.21379-.57255.42082-1.14807.63533-1.72119s.425-1.1478.64011-1.72111.443-1.14193.65873-1.71524.30488-1.1943.52105-1.76734.38536-1.1638.60193-1.73629.41942-1.15.63631-1.72169a16.23663,16.23663,0,0,0,.76247-1.62662,11.91117,11.91117,0,0,0,.19921-1.78184,10.039,10.039,0,0,0-.07045-1.77324,9.62037,9.62037,0,0,0-.094-1.79651,9.33138,9.33138,0,0,0-.81382-1.60287,9.6772,9.6772,0,0,0-.95146-1.49652,11.40932,11.40932,0,0,0-1.26121-1.24223,12.069,12.069,0,0,0-1.35893-1.36845,10.49686,10.49686,0,0,0-1.68377-.96271,9.67625,9.67625,0,0,0-1.89008-.40457A9.31224,9.31224,0,0,0,96.354,3.61917Z"/></g></svg>