<svg id="圖層_1" data-name="圖層 1" xmlns="http://www.w3.org/2000/svg" viewBox="0 0 57.77613 55.15866"><defs><style>.cls-1{fill:#fff;}</style></defs><title>b01</title><polygon class="cls-1" points="28.638 6.324 27.315 5.305 26.721 3.685 25.185 3.039 24.028 2 22.879 1.147 22.399 2.344 21.644 3.693 21.567 5.208 21.454 6.706 21.103 8.209 21.047 9.753 21.597 11.215 22.106 12.642 22.493 14.102 23.11 15.488 23.605 16.91 24.183 18.298 25.028 19.553 25.19 21.188 26.162 22.38 27.548 23.127 28.663 24.375 30.111 23.644 30.946 22.405 31.975 21.407 32.497 20.04 33.11 18.762 34.013 17.617 34.736 16.354 34.721 14.833 35.188 13.486 36.092 12.201 36.478 10.774 36.66 9.361 36.214 7.96 35.884 6.609 35.682 5.251 35.271 3.941 35.147 2.502 34.488 1.254 33.512 0 32.545 1.525 30.939 2.183 30.696 3.915 29.22 4.734 28.638 6.324"/><polygon class="cls-1" points="6.836 21.911 5.174 22.273 3.793 22.988 2.585 24.031 1.193 24.741 0 25.743 1.086 26.716 2.416 27.394 3.417 28.72 4.847 29.279 6.284 29.826 7.893 29.652 9.336 30.235 10.864 29.92 12.364 30.343 13.87 29.862 15.379 29.972 16.899 30.053 18.434 30.07 19.814 29.263 21.288 28.995 22.756 28.548 23.317 27.202 23.525 25.95 22.75 24.76 22.048 23.544 21.55 22.107 20.413 21.18 19.358 20.196 18.028 19.55 17.326 18.069 15.971 17.47 14.865 16.452 13.509 15.865 12.106 15.586 10.762 15.226 9.378 15.112 8.053 14.526 6.649 14.644 5.302 15.168 3.933 15.159 2.531 15.446 3.559 16.684 3.924 18.252 4.541 19.693 6.077 20.472 6.836 21.911"/><polygon class="cls-1" points="14.67 47.935 14.766 49.166 15.847 50.555 15.53 52.196 15.783 53.74 16.483 55.159 17.615 54.243 18.737 53.295 20.132 52.592 20.739 51.129 22.329 50.454 23.046 49.084 23.647 47.667 24.14 46.234 24.33 44.7 24.552 43.197 25.46 41.887 25.225 40.292 26.282 38.959 25.729 37.38 26.236 35.912 26.28 34.357 25.399 33.028 23.955 32.734 22.53 32.907 20.998 32.818 19.684 33.515 18.522 34.458 17.21 35.053 16.053 35.919 14.684 36.492 13.575 37.434 12.866 38.802 11.192 39.186 10.547 40.489 9.724 41.616 9.137 42.881 8.163 43.971 8.09 45.436 8.21 46.877 7.519 48.133 7.927 49.216 8.985 49.014 10.665 49.409 12.105 48.863 13.508 48.217 14.67 47.935"/><polygon class="cls-1" points="41.836 47.725 43.436 47.593 44.982 47.74 46.492 48.152 48.055 48.068 49.758 48.847 49.051 47.204 49.148 45.557 48.578 44.132 47.208 43.173 46.388 41.931 45.568 40.67 44.316 39.832 43.601 38.317 42.1 37.785 40.846 36.946 39.73 35.895 38.293 35.357 37.2 34.198 35.726 33.755 34.199 33.565 32.747 33.49 31.393 33.447 30.239 34.428 30.618 35.995 29.913 37.38 30.556 38.796 30.696 40.209 30.652 41.67 31.019 43.066 31.114 44.56 32.14 45.72 32.167 47.297 32.805 48.624 33.777 49.676 34.689 50.728 35.355 52.011 36.651 52.668 37.893 53.301 39.104 53.908 40.154 54.808 41.349 55.118 41.917 53.846 42.134 52.32 42.17 50.787 42.244 49.252 41.836 47.725"/><polygon class="cls-1" points="50.595 22.045 51.03 20.767 52.11 19.561 52.452 17.997 52.815 16.457 53.74 15.004 52.052 14.401 50.577 15.135 49.145 15.555 47.707 15.868 46.016 15.453 44.636 16.15 43.413 17.095 41.952 17.625 41.153 19.125 39.603 19.562 38.256 20.311 37.088 21.292 35.971 22.338 35.211 23.71 34.381 24.97 33.159 26.069 33.317 27.735 33.984 29.219 35.692 29.215 36.711 30.559 38.167 30.856 39.734 30.402 41.151 30.482 42.525 31.508 43.985 30.654 45.423 30.838 46.867 30.785 48.272 30.442 49.518 29.848 51.024 30.023 52.273 29.403 53.45 28.667 54.595 27.892 55.402 26.719 56.811 26.193 57.776 24.89 55.912 24.576 54.692 23.547 53.216 23.148 51.803 22.544 50.595 22.045"/></svg>